<?xml version="1.0" encoding="utf-8"?>
<!-- Generator: Adobe Illustrator 16.0.0, SVG Export Plug-In . SVG Version: 6.00 Build 0)  -->
<!DOCTYPE svg PUBLIC "-//W3C//DTD SVG 1.1//EN" "http://www.w3.org/Graphics/SVG/1.1/DTD/svg11.dtd">
<svg version="1.1" xmlns="http://www.w3.org/2000/svg" xmlns:xlink="http://www.w3.org/1999/xlink" x="0px" y="0px" width="99.04px"
	 height="69.49px" viewBox="0.48 1.58 99.04 69.49" enable-background="new 0.48 1.58 99.04 69.49" xml:space="preserve">
<g id="bike">
	<path fill="#4C848D" d="M84.95,42.43c-2.76,0-5.33,0.79-7.5,2.17c-0.03,0.02-0.05,0.03-0.08,0.05l-0.16-0.37l-3.97-8.9l-0.49-1.11
		h4.82c1.72,0,3.13,1.4,3.13,3.13s-1.41,3.13-3.13,3.13v1.57c2.59,0,4.689-2.11,4.689-4.7c0-2.59-2.1-4.7-4.689-4.7h-7.24l0.03,0.08
		l0.029,0.05L72,34.27h-0.97l0.649,1.45H49.85l-1.27-2.85l2.09-0.29c0.57,0,1.03-0.45,1.03-1.02c0-0.56-0.46-1.02-1.03-1.02
		c0,0-7.99-1.1-8.18-1.1c-1.18,0-2.13,0.95-2.13,2.12s0.95,2.13,2.13,2.13c0.19,0,0.37-0.03,0.55-0.08l3.92-0.53l1.18,2.64H24.46
		l-0.53-1.18l-0.07-0.16l2.07-0.28c0.56,0,1.02-0.46,1.02-1.03c0-0.56-0.46-1.02-1.02-1.02c0,0-8-1.1-8.19-1.1
		c-1.17,0-2.13,0.95-2.13,2.12c0,1.18,0.96,2.13,2.13,2.13c0.19,0,4.5-0.61,4.5-0.61l0.07,0.15l0.78,1.76l-3.04,6.85
		c-1.56-0.6-3.24-0.92-5-0.92c-7.76,0-14.07,6.31-14.07,14.07c0,7.75,6.31,14.06,14.07,14.06c6.55,0,12.07-4.489,13.63-10.56
		c0.05-0.22,0.1-0.44,0.15-0.66c0,0.23,0.02,0.45,0.05,0.66c0.38,2.52,2.56,4.46,5.18,4.46c2.63,0,4.8-1.94,5.18-4.46h17.55
		c0.34,1.15,1.41,2,2.67,2c0.12,0,0.24-0.02,0.36-0.03c0.27-0.029,0.529-0.109,0.76-0.22c0.25-0.11,0.47-0.25,0.67-0.42
		c0.6-0.51,0.98-1.271,0.98-2.11c0-0.58-0.181-1.12-0.48-1.569L74.5,42.05l1.32,2.98l0.25,0.56c-0.13,0.11-0.261,0.22-0.391,0.34
		c-2.939,2.57-4.8,6.35-4.8,10.57c0,7.75,6.311,14.07,14.07,14.07S99.02,64.25,99.02,56.5C99.02,48.74,92.71,42.43,84.95,42.43z
		 M27.29,59.04c-0.01,0.06-0.02,0.12-0.04,0.18c-0.06,0.261-0.12,0.521-0.2,0.78c-1.52,5.2-6.32,9-12,9c-6.89,0-12.5-5.61-12.5-12.5
		c0-6.9,5.61-12.5,12.5-12.5c1.53,0,3,0.27,4.36,0.78l-4.1,9.21c-0.09-0.01-0.17-0.01-0.26-0.01c-1.34,0-2.44,1.05-2.51,2.38
		c-0.01,0.04-0.01,0.09-0.01,0.14c0,0.15,0.01,0.29,0.04,0.43c0.1,0.57,0.39,1.07,0.79,1.431c0.2,0.18,0.42,0.33,0.67,0.439
		c0.23,0.101,0.49,0.17,0.76,0.2c0.09,0.01,0.17,0.02,0.26,0.02c0.99,0,1.85-0.579,2.26-1.409c0.01-0.021,0.02-0.051,0.03-0.07
		l9.96,1.49C27.29,59.03,27.29,59.03,27.29,59.04z M27.51,57.47l-10-1.489c-0.06-0.311-0.18-0.601-0.35-0.86
		c-0.12-0.18-0.26-0.34-0.42-0.49l4.1-9.21c2.83,1.49,5.03,4.03,6.06,7.1c0.17,0.49,0.31,1,0.41,1.521
		c0.16,0.79,0.24,1.62,0.24,2.46C27.55,56.82,27.54,57.15,27.51,57.47z M29.07,57.63c0.03-0.38,0.05-0.75,0.05-1.13
		c0-0.99-0.1-1.95-0.3-2.87c-0.1-0.52-0.24-1.02-0.4-1.51c-1.16-3.54-3.68-6.45-6.94-8.14l2.47-5.55l5.92,13.29l0.65,1.45l0.72,1.64
		C30.23,55.46,29.45,56.46,29.07,57.63z M25.16,37.29h21.63c1.73,0,3.13,1.4,3.13,3.13s-1.41,3.13-3.13,3.13v1.57
		c1.91,0,3.56-1.15,4.29-2.79l1.49,3.33L31.4,51.32L25.16,37.29z M56.79,58.44H39.24c-0.37-2.521-2.55-4.46-5.18-4.46
		c-0.48,0-0.94,0.06-1.39,0.189l-0.62-1.4l21.16-5.66l4.45,9.99C57.25,57.45,56.95,57.91,56.79,58.44z M60.53,56.66
		c-0.33-0.141-0.69-0.22-1.07-0.22c-0.13,0-0.25,0.01-0.37,0.02l-4.35-9.76l17.81-4.76L60.53,56.66z M54.1,45.25l-3.55-7.96h21.83
		l1.23,2.75L54.1,45.25z M84.95,69c-6.891,0-12.5-5.61-12.5-12.5c0-3.76,1.66-7.13,4.29-9.42l0.58,1.32
		c1.699,3.81,3.729,6.09,5.22,7.37c-0.07,0.23-0.11,0.48-0.11,0.73c0,1.38,1.13,2.51,2.521,2.51c1.39,0,2.52-1.13,2.52-2.51
		c0-1.39-1.13-2.52-2.52-2.52c-0.561,0-1.08,0.18-1.5,0.5c-1.33-1.181-3.16-3.271-4.7-6.721l-0.73-1.66C80,44.77,82.39,44,84.95,44
		c6.899,0,12.5,5.6,12.5,12.5C97.45,63.39,91.85,69,84.95,69z"/>
	<path fill="#433235" d="M26.95,33.07c0,0.57-0.46,1.03-1.02,1.03l-2.07,0.28l0.07,0.16l-1.62,0.2l-0.07-0.15
		c0,0-4.31,0.61-4.5,0.61c-1.17,0-2.13-0.95-2.13-2.13c0-1.17,0.96-2.12,2.13-2.12c0.19,0,8.19,1.1,8.19,1.1
		C26.49,32.05,26.95,32.51,26.95,33.07z"/>
	<path fill="#433235" d="M51.7,31.56c0,0.57-0.46,1.03-1.021,1.03l-2.07,0.28l0.07,0.16l-1.619,0.2l-0.07-0.15
		c0,0-4.31,0.61-4.5,0.61c-1.17,0-2.13-0.95-2.13-2.13c0-1.17,0.96-2.12,2.13-2.12c0.19,0,8.189,1.1,8.189,1.1
		C51.24,30.54,51.7,31,51.7,31.56z"/>
	<path fill="#433235" d="M82.26,37.4c0,2.59-2.1,4.7-4.689,4.7v-1.57c1.72,0,3.13-1.4,3.13-3.13s-1.41-3.13-3.13-3.13H72l-1.61-1.44
		l-0.029-0.02l-0.03-0.03h0.03l0.779-0.08h6.431C80.16,32.7,82.26,34.81,82.26,37.4z"/>
	<polygon fill="#433235" points="72,34.27 71.03,34.27 70.39,32.83 	"/>
	<polygon fill="#433235" points="72,32.78 72,34.27 70.39,32.83 70.36,32.81 70.36,32.78 	"/>
	
		<rect x="75.696" y="44.312" transform="matrix(0.4228 0.9062 -0.9062 0.4228 85.1374 -43.5025)" fill="#4C848D" width="2.049" height="1.547"/>
	<path fill="none" stroke="#000000" stroke-miterlimit="10" d="M21.52,43.88c4.56,2.34,7.69,7.09,7.69,12.57
		c0,0.3-0.01,0.59-0.03,0.88v0.01"/>
	<path fill="none" stroke="#000000" stroke-miterlimit="10" d="M77.32,44.55c2.189-1.4,4.79-2.21,7.58-2.21
		c7.33,0,13.35,5.58,14.05,12.72C99,55.52,99.02,55.98,99.02,56.45c0,0.49-0.02,0.97-0.069,1.439c-0.03,0.24-0.061,0.48-0.09,0.71
		c-0.04,0.23-0.08,0.471-0.13,0.7C97.6,64.81,93.26,69.15,87.75,70.28c-0.23,0.05-0.47,0.09-0.7,0.13
		c-0.229,0.03-0.47,0.06-0.71,0.09c-0.47,0.05-0.95,0.07-1.439,0.07c-0.471,0-0.931-0.021-1.391-0.07
		c-7.14-0.7-12.72-6.72-12.72-14.05c0-4.431,2.04-8.38,5.229-10.97"/>
	<path fill="none" stroke="#000000" stroke-miterlimit="10" d="M28.84,59.66c0,0.01,0,0.01,0,0.02
		c-1.38,5.88-6.42,10.34-12.58,10.83c-0.2,0.021-0.4,0.03-0.6,0.04c-0.19,0.021-0.37,0.021-0.56,0.021c-0.5,0-1-0.03-1.49-0.08
		c-0.24-0.021-0.47-0.05-0.7-0.09s-0.46-0.08-0.69-0.131c-0.17-0.029-0.34-0.069-0.51-0.109c-0.19-0.05-0.38-0.101-0.57-0.15
		c-0.15-0.05-0.3-0.09-0.44-0.14c-0.16-0.05-0.32-0.11-0.48-0.17c-0.2-0.07-0.4-0.15-0.6-0.24c-0.17-0.07-0.34-0.14-0.51-0.22
		c-0.18-0.08-0.36-0.17-0.53-0.26C8.3,68.84,8.03,68.68,7.76,68.52c-0.38-0.239-0.75-0.489-1.11-0.75c0-0.01-0.01-0.01-0.02-0.01
		c-0.35-0.27-0.69-0.56-1.02-0.85C5.6,66.9,5.6,66.89,5.59,66.9c-0.27-0.25-0.53-0.511-0.79-0.78c-0.25-0.271-0.49-0.54-0.72-0.83
		c-0.46-0.57-0.87-1.18-1.24-1.82C2.66,63.15,2.49,62.82,2.33,62.49C2.25,62.31,2.17,62.14,2.09,61.97
		c-0.35-0.85-0.63-1.75-0.82-2.67c-0.05-0.229-0.09-0.47-0.13-0.7c-0.03-0.229-0.06-0.47-0.09-0.71C1,57.42,0.98,56.94,0.98,56.45
		c0-0.47,0.02-0.931,0.07-1.391c0.02-0.239,0.05-0.47,0.09-0.699C2.15,47.56,8.01,42.34,15.1,42.34c1.76,0,3.44,0.32,4.99,0.92"/>
	<path d="M76.07,45.59c-0.13,0.11-0.261,0.22-0.391,0.34l-0.38-0.51l0.521-0.39L76.07,45.59z"/>
	<path fill="#433235" d="M51.541,40.386c0,2.59-2.1,4.7-4.69,4.7v-1.57c1.72,0,3.13-1.4,3.13-3.13s-1.41-3.13-3.13-3.13h-5.07v-1.57
		h5.07C49.441,35.686,51.541,37.796,51.541,40.386z"/>
</g>
<g id="Layer_2">
	<g id="denny">
		<circle id="head" fill="#DDAEA6" cx="65.413" cy="8.083" r="6.083"/>
		<g id="hair">
			<path fill="#5B4036" stroke="#5B4036" stroke-width="0.5" stroke-miterlimit="10" d="M70.672,4.944l-8.888-1.868l-2.017,6.436
				c-0.224-0.604-0.353-1.265-0.353-1.944c0-3.171,2.663-5.738,5.951-5.738C67.677,1.83,69.674,3.095,70.672,4.944z"/>
			<path fill="#5B4036" d="M71.48,7.59L71.31,6.4C71.41,6.78,71.47,7.18,71.48,7.59z"/>
			<path fill="#5B4036" d="M71.53,7.9L71.5,7.89c0-0.1,0-0.2-0.02-0.3L71.53,7.9z"/>
			<path fill="#5B4036" d="M71.734,7.89l-2.804-0.54l-2.915-2.27l-1.829,2.98l-0.945-1.49l-1.412,1.49v2.19h-1.98
				c-0.041-0.09-0.081-0.18-0.111-0.28l2.092-6.82l9.225,1.98c0.204,0.4,0.376,0.82,0.487,1.27l0.174,1.19
				C71.734,7.69,71.734,7.79,71.734,7.89z"/>
		</g>
		<path id="calve" fill="#504E53" d="M55.74,53.896c-1.011,1.78-3.129,2.487-4.729,1.577l0,0c-1.602-0.91-2.079-3.091-1.065-4.87
			l8.243-14.507c1.012-1.782,3.129-2.487,4.729-1.577l0,0c1.601,0.909,2.078,3.089,1.065,4.87L55.74,53.896z"/>
		<path id="thigh" fill="#504E53" d="M62.16,33.971c1.938,1.374,2.438,3.993,1.121,5.847l0,0c-1.316,1.854-3.954,2.242-5.891,0.867
			l-11.746-8.344c-1.937-1.376-2.438-3.994-1.121-5.848l0,0c1.315-1.854,3.954-2.242,5.89-0.866L62.16,33.971z"/>
		<path id="shoe" d="M58.009,57.115c-0.438,0.91-1.532,1.293-2.442,0.854l-6.19-2.981c-0.91-0.439-1.293-1.532-0.854-2.442l0,0
			c0.438-0.91,1.532-1.293,2.442-0.854l6.19,2.981C58.064,55.112,58.447,56.205,58.009,57.115L58.009,57.115z"/>
		<path id="back" stroke="#000000" stroke-miterlimit="10" d="M60.73,20.33l-7.021,8.14l-9.68,1.57c-0.6-1.46-0.37-3.18,0.73-4.45
			l9.41-10.92c0.86-0.99,2.061-1.5,3.28-1.5c1,0,2.01,0.35,2.83,1.05C62.09,15.78,62.3,18.52,60.73,20.33z"/>
		<g id="arm">
			<path fill="#B6B2C9" d="M65.584,28.02c0.52,1.525-0.297,3.182-1.822,3.7l0,0c-1.525,0.518-3.183-0.298-3.699-1.823l-4.074-11.994
				c-0.52-1.525,0.298-3.181,1.824-3.7l0,0c1.524-0.518,3.181,0.298,3.698,1.823L65.584,28.02z"/>
			<path fill="#B6B2C9" d="M74.674,31.723c1.309,0.445,2.041,1.771,1.635,2.965l0,0c-0.406,1.193-1.793,1.802-3.101,1.358
				l-10.892-3.693c-1.309-0.444-2.039-1.771-1.635-2.965l0,0c0.405-1.194,1.795-1.802,3.102-1.359L74.674,31.723z"/>
		</g>
	</g>
	<g id="nicole">
		<path id="shoe_1_" d="M32.9,57.656c-0.438,0.91-1.532,1.293-2.442,0.854l-6.19-2.98c-0.91-0.439-1.293-1.533-0.854-2.443l0,0
			c0.438-0.91,1.532-1.293,2.442-0.854l6.19,2.98C32.956,55.652,33.338,56.746,32.9,57.656L32.9,57.656z"/>
		<path id="calve_1_" d="M29.694,53.879c-1.036,1.742-2.951,2.394-4.28,1.454l0,0c-1.328-0.939-1.567-3.111-0.532-4.854
			l8.431-14.187c1.036-1.743,2.951-2.393,4.279-1.454l0,0c1.329,0.938,1.568,3.111,0.532,4.853L29.694,53.879z"/>
		<path id="thigh_1_" d="M36.927,34.334c1.921,1.126,2.418,3.27,1.113,4.787l0,0c-1.307,1.518-3.922,1.837-5.842,0.711L20.55,32.999
			c-1.921-1.126-2.417-3.27-1.112-4.789l0,0c1.304-1.518,3.921-1.836,5.841-0.709L36.927,34.334z"/>
		<path id="back_1_" fill="#BCBBB9" d="M34.284,21.16l-6.64,8.37l-8.774,1.2c-0.479-1.42-0.249-3.07,0.727-4.31L28.25,15.5
			c0.792-0.99,1.895-1.5,3.017-1.5c0.92,0,1.849,0.35,2.603,1.05C35.535,16.61,35.728,19.35,34.284,21.16z"/>
		<g id="arm_1_">
			<path id="guns" fill="#BCBBB9" d="M42.892,23.018c1.238,0.824,1.474,2.276,0.527,3.245l0,0c-0.946,0.969-2.718,1.085-3.954,0.262
				l-9.734-6.481c-1.238-0.823-1.473-2.276-0.527-3.245l0,0c0.946-0.969,2.718-1.085,3.954-0.262L42.892,23.018z"/>
			<path id="forearm" fill="#BCBBB9" d="M51.762,19.354c1.214-0.465,2.58-0.036,3.053,0.96l0,0c0.471,0.994-0.128,2.177-1.342,2.641
				l-10.104,3.871c-1.214,0.464-2.58,0.036-3.053-0.959l0,0c-0.473-0.995,0.127-2.177,1.34-2.641L51.762,19.354z"/>
		</g>
		<circle id="head_1_" fill="#DDAEA6" cx="39.333" cy="7.914" r="6.083"/>
		<g id="girl_hair">
			<path fill="#5B4036" stroke="#5B4036" stroke-width="0.5" stroke-miterlimit="10" d="M44.512,4.944l-8.888-1.868l-2.017,6.436
				c-0.224-0.604-0.353-1.265-0.353-1.944c0-3.171,2.663-5.738,5.951-5.738C41.517,1.83,43.514,3.095,44.512,4.944z"/>
			<path fill="#5B4036" d="M45.14,5.67l-2.99,1.2l-2.29-1.79l-1.83,2.98l-0.95-1.49l-1.41,1.49v1.4l-1.98,0.79
				c-0.04-0.09-0.08-0.18-0.11-0.28l2.09-6.82l2.77,0.6l4.11,0.88l2.34,0.5C44.98,5.3,45.07,5.48,45.14,5.67z"/>
			<ellipse fill="#5B4036" cx="33.5" cy="5.4" rx="2.594" ry="2.557"/>
			<polygon fill="#5B4036" points="45.14,5.67 42.15,6.87 35.67,9.46 33.69,10.25 38.44,3.75 38.88,3.15 42.55,4.63 			"/>
			<path fill="#5B4036" d="M45.14,5.67c0.006,2.213-4.596,4.018-10.288,4.035L45.14,5.67z"/>
		</g>
	</g>
</g>
</svg>
