<?xml version="1.0" encoding="utf-8"?>
<!-- Generator: Adobe Illustrator 16.0.0, SVG Export Plug-In . SVG Version: 6.00 Build 0)  -->
<!DOCTYPE svg PUBLIC "-//W3C//DTD SVG 1.1//EN" "http://www.w3.org/Graphics/SVG/1.1/DTD/svg11.dtd">
<svg version="1.1" id="Layer_1" xmlns="http://www.w3.org/2000/svg" xmlns:xlink="http://www.w3.org/1999/xlink" x="0px" y="0px"
	 width="288px" height="216px" viewBox="0 0 288 216" enable-background="new 0 0 288 216" xml:space="preserve">
<path fill-rule="evenodd" clip-rule="evenodd" d="M68.221,124.102c0.461,0.279,0.896,0.64,1.395,0.822
	c0.505,0.185,1.073,0.208,1.616,0.28c1.963,0.258,2.015,0.277,2.818-1.507c0.56-1.249,1.46-2.081,2.706-2.494
	c1.099-0.364,2.241-0.618,3.382-0.825c1.073-0.194,1.443,0.358,1.029,1.392c-0.757,1.894-2.346,2.997-3.918,4.115
	c-0.163,0.115-0.337,0.218-0.709,0.461c0.612,0.156,1.067,0.209,1.463,0.392c0.388,0.182,0.714,0.5,1.067,0.756
	c-0.036,0.106-0.07,0.211-0.106,0.317c-0.347,0.04-0.713,0.163-1.038,0.096c-3.376-0.717-6.739-1.49-10.119-2.188
	c-0.966-0.2-1.972-0.208-3.154-0.321c2.916,1.956,5.601,3.743,6.85,6.95c0.375,0.965-0.053,1.558-1.057,1.452
	c-3.366-0.363-5.539-2.226-6.327-5.506c-0.229-0.95-0.314-1.939-0.504-3.158c-0.413,0-1.156,0.044-1.892-0.011
	c-1.913-0.138-3.823-0.36-5.738-0.473c-1.125-0.063-2.264-0.04-3.389,0.048c-4.065,0.326-8.133,0.658-12.192,1.066
	c-2.537,0.256-4.929,1.111-6.911,2.705c-1.626,1.31-3.254,2.743-3.801,4.923c-0.455,1.819,0.09,3.327,1.4,4.684
	c1.781,1.843,3.948,3.095,6.08,4.447c1.586,1.009,3.314,1.469,5.059,1.808c1.771,0.343,3.63,0.2,5.43,0.432
	c2.987,0.394,5.948,0.996,8.938,1.347c1.681,0.198,3.399,0.038,5.099,0.095c3.283,0.107,6.57,0.433,9.846,0.337
	c3.172-0.096,6.333-0.593,9.496-0.945c2.377-0.265,4.756-0.534,7.122-0.89c3.262-0.489,6.23-1.81,9.145-3.314
	c4.253-2.196,8.313-4.628,11.55-8.24c0.431-0.482,0.979-0.858,1.471-1.284c1.421-1.235,2.129-2.881,2.821-4.587
	c0.769-1.893,1.826-3.664,2.622-5.549c0.379-0.896,0.438-1.928,0.65-2.898c0.319-1.46,0.655-2.92,0.959-4.383
	c0.108-0.52,0.144-1.052,0.231-1.725c-0.844,0.396-1.539,0.673-2.189,1.031c-2.38,1.318-5.257-0.009-5.648-2.695
	c-0.161-1.105-0.161-2.257-0.059-3.373c0.307-3.383,0.737-6.757,1.029-10.143c0.066-0.755-0.192-1.553-0.389-2.308
	c-0.058-0.224-0.402-0.469-0.648-0.508c-0.149-0.024-0.395,0.302-0.534,0.512c-0.333,0.502-0.627,1.03-0.966,1.595
	c-0.785-0.491-1.18-1.226-0.909-1.932c0.28-0.735,0.821-1.567,1.482-1.924c1.473-0.798,3.263,0.584,3.658,1.975
	c0.8,2.818,0.415,5.571,0.168,8.373c-0.177,2.009-0.184,4.036-0.233,6.057c-0.01,0.327,0.145,0.66,0.226,0.989
	c0.58,2.321,2.192,1.808,3.425,0.586c1.015-1.008,1.136-2.412,1.277-3.733c0.261-2.485,0.472-4.981,0.568-7.479
	c0.044-1.132-0.21-2.281-0.381-3.414c-0.139-0.91,0.062-1.742,0.708-2.34c0.255-0.234,0.884-0.201,1.285-0.085
	c0.232,0.068,0.497,0.542,0.494,0.83c-0.03,4.516,0.041,9.034-0.7,13.523c-0.266,1.607-0.083,3.284-0.244,4.914
	c-0.113,1.138-0.476,2.252-0.712,3.379c-0.461,2.207-0.739,4.474-1.403,6.619c-1.292,4.166-3.339,8.023-6.291,11.224
	c-1.686,1.829-3.919,3.173-5.983,4.623c-1.819,1.281-3.674,2.551-5.645,3.57c-1.996,1.028-4.1,1.913-6.247,2.566
	c-6.173,1.863-12.525,2.723-18.958,3.021c-5.705,0.262-11.394,0.073-17.074-0.522c-3.1-0.325-6.209-0.772-9.314-0.765
	c-2.363,0.004-4.473-1.001-6.777-1.127c-0.787-0.044-1.542-0.683-2.312-1.048c-2.982-1.42-5.828-3.031-8.151-5.456
	c-1.406-1.466-2.263-3.021-2.22-5.176c0.051-2.491,1.444-4.059,2.985-5.711c2.101-2.252,4.817-3.039,7.635-3.929
	c2.977-0.942,5.97-0.631,8.948-0.937c5.211-0.542,10.414-0.041,15.619,0.053c0.867,0.015,1.343-0.251,1.603-1.071
	c0.783-2.463,2.773-3.546,5.04-4.237c0.814-0.246,1.686-0.363,2.538-0.401c0.37-0.021,0.928,0.207,1.089,0.496
	c0.184,0.334,0.151,0.911-0.01,1.287c-0.958,2.237-2.688,3.592-5.145,4.047C68.237,123.82,68.229,123.959,68.221,124.102z"/>
<path fill-rule="evenodd" clip-rule="evenodd" d="M164.119,96.316c0.851,1.345,1.674,2.653,2.508,3.955
	c1.509,2.359,1.715,5.083,2.219,7.733c0.356,1.864,0.876,3.696,1.332,5.541c0.041,0.165,0.11,0.372,0.235,0.459
	c1.222,0.839,1.079,2.03,0.777,3.466c-0.737-0.228-1.486-0.557-2.272-0.675c-1.205-0.185-0.984-1.155-1.213-1.896
	c-0.232-0.764-0.508-1.515-0.707-2.286c-0.444-1.742-1.053-3.474-1.236-5.245c-0.324-3.064-1.113-5.936-2.725-8.553
	c-0.628-1.018-1.306-1.96-2.829-1.907c-0.872,0.028-1.784-0.494-2.634-0.865c-0.211-0.092-0.441-0.73-0.349-0.83
	c0.379-0.412,0.872-0.726,1.343-1.046c0.089-0.06,0.287-0.025,0.403,0.03c2.556,1.208,4.59-0.076,6.638-1.357
	c2.232-1.397,3.19-3.614,4.058-5.96c0.894-2.423,0.732-4.688-0.519-6.904c-1.169-2.073-3.061-3.061-5.329-3.413
	c-2.399-0.37-4.791-0.826-7.201-1c-1.606-0.115-3.245,0.156-4.863,0.336c-1.855,0.207-3.726,0.406-5.554,0.784
	c-2.481,0.51-4.132,2.562-4.301,5.092c-0.084,1.257,0.412,1.931,1.655,2.149c0.606,0.106,0.799,0.427,0.566,0.946
	c-0.689,1.528-1.67,1.886-3.288,1.247c-1.422-0.56-3.135-2.74-3.038-4.08c0.142-2.006,0.766-3.761,2.67-4.883
	c2.521-1.486,5.121-2.664,8.009-3.3c3.516-0.773,7.023-1.008,10.622-1.041c1.96-0.019,3.854,0.071,5.703,0.513
	c2.04,0.486,4.143,1.027,5.705,2.584c0.652,0.65,1.296,1.394,1.665,2.22c0.971,2.174,2.067,4.358,1.346,6.887
	c-0.308,1.087-0.535,2.198-0.818,3.292c-0.402,1.535-1.567,2.508-2.642,3.546c-0.399,0.385-0.876,0.734-1.146,1.198
	c-0.937,1.608-2.354,2.489-4.1,2.954C164.556,96.074,164.32,96.223,164.119,96.316z"/>
<path fill-rule="evenodd" clip-rule="evenodd" d="M74.293,111.391c0.877-1.046,0.794-2.312,0.93-3.493
	c0.326-2.822,0.634-5.649,0.8-8.483c0.065-1.126-0.105-2.33-0.457-3.404c-0.392-1.194-1.894-1.256-2.748-0.321
	c-0.872,0.956-1.197,1.988-1.216,3.301c-0.056,3.863-0.287,7.721-0.435,11.581c-0.022,0.578,0.022,1.162,0.077,1.739
	c0.085,0.889-1.128,1.939-1.971,1.644c-0.217-0.078-0.427-0.331-0.531-0.557c-0.146-0.321-0.193-0.688-0.193-1.044
	c-0.102-0.556-0.204-1.113-0.319-1.736c0.918-0.452,0.679-1.601,0.771-2.453c0.348-3.279,0.528-6.576,0.715-9.87
	c0.045-0.784-0.068-1.591-0.227-2.364c-0.077-0.388-0.362-0.786-0.664-1.058c-0.207-0.184-0.714-0.312-0.891-0.187
	c-0.283,0.199-0.418,0.622-0.587,0.966c-0.244,0.497-0.462,1.006-0.726,1.585c-1.271-1.177-1.26-2.644-0.181-3.718
	c1.378-1.372,2.72-1.009,4.737,1.285c2.855-2.076,3.773-2.08,5.703-0.222c1.231-0.331,2.314-0.809,3.419-0.875
	c1.621-0.094,2.396,0.535,2.703,2.116c0.309,1.577,0.536,3.201,0.528,4.803c-0.012,2.477-0.271,4.954-0.391,7.434
	c-0.083,1.701-0.074,3.408-0.167,5.111c-0.051,0.91-0.458,1.061-1.176,0.52c-1.247-0.94-1.199-1.658-1.001-3.266
	c0.354-2.882,0.644-5.771,0.909-8.661c0.096-1.035,0.079-2.083,0.043-3.125c-0.025-0.691-0.176-1.376-0.28-2.145
	c-0.337,0.185-0.522,0.348-0.728,0.386c-1.042,0.188-1.355,0.503-1.401,1.647c-0.084,2.083-0.11,4.168-0.201,6.252
	c-0.098,2.266-0.242,4.528-0.371,6.794c-0.01,0.182-0.002,0.419-0.107,0.527c-0.15,0.153-0.398,0.216-0.604,0.315
	c-0.089-0.183-0.264-0.371-0.253-0.55c0.136-2.417,0.327-4.828,0.445-7.244c0.076-1.561,0.024-3.125,0.095-4.686
	c0.037-0.819,0.14-1.652,0.347-2.445c0.383-1.48,0.925-1.786,2.684-1.458c-0.309-0.319-0.432-0.562-0.601-0.601
	c-1.685-0.386-2.811,0.517-2.909,2.212c-0.085,1.479-0.304,2.95-0.404,4.429c-0.23,3.389-0.413,6.78-0.657,10.167
	c-0.024,0.342-0.403,0.96-0.513,0.937c-0.47-0.099-0.974-0.308-1.327-0.626C74.642,112.262,74.502,111.773,74.293,111.391z"/>
<path fill-rule="evenodd" clip-rule="evenodd" d="M59.835,102.309c-0.009,0.043,0.044-0.054,0.016-0.112
	c-0.469-0.996-0.38-2.081-0.392-3.117c-0.014-1.012-0.488-1.774-0.97-2.538c-0.448-0.713-1.254-0.839-2.026-0.677
	c-0.703,0.148-1.331,0.501-1.448,1.326c-0.035,0.242-0.048,0.519,0.035,0.741c0.301,0.806-0.142,1.126-0.796,1.37
	c-0.706,0.263-0.881-0.257-1.102-0.711c-0.758-1.558-0.199-3.092,1.458-3.912c1.668-0.824,3.38-0.9,5.127-0.232
	c1.193,0.457,1.421,1.574,1.822,2.579c0.912,2.291,0.607,4.696,0.663,7.065c0.052,2.214,0.031,4.428,0.126,6.641
	c0.021,0.498,0.36,0.997,0.605,1.467c0.138,0.262,0.43,0.443,0.564,0.705c0.143,0.277,0.182,0.606,0.265,0.914
	c-0.471,0.067-0.952,0.222-1.412,0.177c-0.402-0.039-0.785-0.301-1.157-0.455c-0.182-0.437-0.388-0.936-0.623-1.503
	c-0.678,0.38-1.309,0.666-1.865,1.062c-0.848,0.602-1.636,0.876-2.675,0.346c-1.03-0.524-2.212-0.754-3.251-1.271
	c-1.586-0.787-2.113-2.297-2.103-3.924c0.026-3.909,2.882-6.091,6.219-6.463C57.849,101.683,58.845,102.118,59.835,102.309z
	 M60.301,109.537c-0.121-1.395-0.227-2.793-0.379-4.185c-0.024-0.225-0.23-0.586-0.398-0.614c-1.208-0.207-2.438-0.518-3.645-0.464
	c-2.204,0.101-3.929,2.072-3.432,4.345c0.157,0.717,0.605,1.434,1.098,1.998c0.809,0.925,2.073,0.834,3.155,0.964
	c0.789,0.093,1.635-0.268,2.451-0.448C60.333,110.872,60.408,110.759,60.301,109.537z"/>
<path fill-rule="evenodd" clip-rule="evenodd" d="M28.812,86.84c-2.265,1.274-4.719,1.702-6.097-0.628
	c-0.342-0.579-1.08-1.082-1.114-1.652c-0.099-1.638-0.382-3.388,0.792-4.823c0.661-0.808,1.355-1.608,2.141-2.287
	c0.907-0.782,1.966-1.385,2.898-2.139c1.885-1.523,4.191-1.771,6.434-2.249c3.493-0.741,7.029-0.364,10.546-0.47
	c3.84-0.116,7.679-0.321,11.518-0.474c1.301-0.051,2.606-0.096,3.908-0.065c0.263,0.006,0.698,0.339,0.739,0.577
	c0.098,0.564,0.146,1.215-0.053,1.726c-0.148,0.382-0.68,0.745-1.107,0.856c-0.651,0.167-1.36,0.13-2.045,0.142
	c-3.731,0.058-7.461,0.114-11.192,0.151c-2.81,0.026-5.625-0.077-8.427,0.065c-1.759,0.091-3.631,0.217-5.219,0.885
	c-2.143,0.902-4.197,2.167-6.026,3.61c-1.056,0.832-1.832,2.24-1.318,3.855c0.201,0.632-0.268,1.508,0.598,1.889
	c0.648,0.283,1.351,0.438,2.025,0.66C28.081,86.555,28.342,86.664,28.812,86.84z"/>
<path fill-rule="evenodd" clip-rule="evenodd" d="M43.3,80.296c0.812,1.266,0.405,2.591,0.36,3.859
	c-0.063,1.896-0.257,3.786-0.375,5.68c-0.086,1.391-0.14,2.783-0.219,4.407c2.097-0.33,3.998-0.637,5.903-0.917
	c0.204-0.029,0.586,0.055,0.619,0.167c0.137,0.458,0.364,1.027,0.206,1.409c-0.397,0.958-1.068,1.515-2.3,1.433
	c-1.276-0.082-2.584,0.16-3.863,0.358c-0.275,0.044-0.656,0.493-0.696,0.793c-0.51,3.769-0.973,7.542-1.428,11.316
	c-0.097,0.813-0.104,1.636-0.158,2.452c-0.007,0.098-0.027,0.222-0.089,0.284c-0.712,0.718-1.396,1.473-2.179,2.104
	c-0.209,0.171-0.804,0.078-1.072-0.108c-0.184-0.13-0.13-0.629-0.141-0.965c-0.004-0.111,0.204-0.263,0.173-0.338
	c-0.853-2.155-0.017-4.253,0.303-6.327c0.766-4.959,1.291-9.935,1.554-14.944c0.113-2.151,0.501-4.287,0.765-6.431
	c0.008-0.067,0.037-0.139,0.025-0.205C40.349,82.253,41.633,81.211,43.3,80.296z"/>
<path fill-rule="evenodd" clip-rule="evenodd" d="M176.718,106.531c-0.874,2.283,0.993,4.922,3.528,5.382
	c-0.655-0.606-1.546-1.268-2.212-2.113c-0.369-0.47-0.391-1.234-0.493-1.879c-0.019-0.124,0.29-0.361,0.488-0.431
	c0.084-0.027,0.362,0.227,0.4,0.388c0.382,1.709,1.851,2.178,3.172,2.809c0.251,0.121,0.542,0.155,0.813,0.229
	c1.235,0.342,1.326,0.62,0.563,1.53c1.037,0,2.113,0,3.371,0c-0.646,1.193-1.596,1.579-2.583,1.707
	c-1.885,0.239-3.652-0.275-5.438-0.911c-2.013-0.715-3.237-2.119-3.615-4.033c-0.304-1.548-0.166-3.233,0.058-4.817
	c0.414-2.919,2.103-5.271,3.91-7.487c0.598-0.737,1.492-1.291,2.347-1.744c1.111-0.59,2.311-1.017,3.488-1.472
	c1.435-0.557,2.717,0.157,3.935,0.702c0.447,0.2,0.865,1.119,0.816,1.669c-0.235,2.636-1.208,4.856-3.329,6.701
	c-2.439,2.122-5.561,2.482-8.283,3.833C177.426,106.707,177.069,106.562,176.718,106.531z M177.232,104.633
	c3.234-0.636,6.322-1.533,8.635-4.007c1.049-1.125,1.709-2.53,1.495-4.152c-0.039-0.319-0.3-0.757-0.568-0.87
	c-1.417-0.591-4.117,0.511-4.997,2.119c0.508-0.285,0.843-0.532,1.216-0.671c0.909-0.336,1.822-0.672,2.761-0.888
	c0.234-0.054,0.574,0.347,0.867,0.54c-0.283,0.225-0.539,0.515-0.858,0.658c-0.374,0.169-0.84,0.142-1.207,0.32
	c-2.32,1.116-4.189,2.659-4.995,5.245c-0.084,0.27-0.547,0.421-0.837,0.629c-0.157-0.34-0.48-0.706-0.436-1.015
	c0.078-0.5,0.328-1.013,0.634-1.429c0.794-1.089,1.658-2.129,2.533-3.237C179.273,98.898,177.396,101.871,177.232,104.633z"/>
<path fill-rule="evenodd" clip-rule="evenodd" d="M267.857,113.225c-0.809,1.519-1.563,0.039-2.312-0.066
	c-0.376-0.053-0.709-0.48-1.043-0.763c-0.836-0.709-1.598-1.116-2.629-0.165c-1.004,0.924-2.195,0.36-3.146-0.172
	c-0.881-0.493-2.158-0.769-2.353-1.993c0.369-1.099,3.773-2.799,6.188-1.39c0.749-0.589,0.746-1.445,1.046-2.221
	c0.528-1.388,0.299-2.646,0.044-3.928c-0.447-2.235-1.289-4.318-3.013-6.222c-1.148,6.007-3.482,11.298-6.982,16.056
	c-0.339,0.459-0.979,0.694-1.506,1.054c-0.688-1.207-0.473-2.118,0.286-3.205c1.134-1.625,2.006-3.438,2.945-5.193
	c0.736-1.377,1.525-2.741,2.074-4.192c0.723-1.92,1.295-3.903,1.812-5.891c0.416-1.61,0.755-1.724,2.184-0.965
	c1.371,0.727,1.93,2.036,2.66,3.19c0.976,1.547,1.934,3.177,2.495,4.904c0.78,2.398-0.206,4.648-1.345,6.755
	c-0.712,1.322-0.615,1.671,0.97,2.318c-0.248-0.371-0.451-0.679-0.657-0.987c0.035-0.115,0.068-0.23,0.099-0.348
	c0.456,0.073,0.981,0.026,1.352,0.244c0.876,0.52,1.535,1.229,1.018,2.425"/>
<path fill-rule="evenodd" clip-rule="evenodd" d="M240.503,106.741c0.187,1.086,0.264,2.188,0.604,3.201
	c0.137,0.41,0.81,0.696,1.292,0.934c1.146,0.565,2.324,1.048,3.652,0.562c0.196-0.07,0.459-0.007,0.684,0.039
	c0.461,0.094,0.929,0.183,1.371,0.337c0.354,0.122,0.676,0.343,1.011,0.518c-0.256,0.348-0.478,0.953-0.771,0.989
	c-1.069,0.133-2.17,0.157-3.243,0.07c-1.712-0.138-3.352-0.448-4.801-1.564c-1.746-1.341-2.271-3.107-2.244-5.148
	c0.06-4.391,1.755-8.149,4.64-11.371c1.627-1.818,3.771-2.651,6.214-2.246c1.465,0.243,2.425,1.429,2.279,3.208
	c-0.286,3.479-2.682,5.316-5.043,7.271C244.495,104.907,242.713,106.027,240.503,106.741z M248.138,95.346
	c-0.709-0.933-1.428-0.713-2.127-0.404c-3.443,1.523-5.994,6.299-5.392,10.226c0.474-0.255,0.941-0.453,1.35-0.737
	c1.352-0.936,2.684-1.896,4.015-2.858c1.729-1.249,2.408-2.954,2.212-5.33c-0.738,0.311-1.426,0.449-1.925,0.837
	c-1.813,1.416-3.238,3.126-3.686,5.486c-0.04,0.191-0.252,0.455-0.418,0.484c-0.168,0.027-0.504-0.162-0.545-0.316
	c-0.101-0.371-0.234-0.877-0.069-1.155c0.84-1.398,1.694-2.8,2.693-4.083C245.177,96.3,246.42,95.456,248.138,95.346z"/>
<path fill-rule="evenodd" clip-rule="evenodd" d="M153.74,80.039c1.159,3.848,0.716,7.752,0.883,11.599
	c0.141,3.325,0.13,6.666-0.026,9.99c-0.121,2.593-0.479,5.185-0.905,7.747c-0.285,1.707-1.39,3.021-2.704,4.127
	c-0.366,0.311-0.735,0.616-1.149,0.964c0.068-1.473-0.131-2.883,0.23-4.135c1.808-6.237,1.065-12.64,1.361-18.968
	c0.099-2.158-0.28-4.351-0.574-6.51C150.544,82.552,151.364,81.027,153.74,80.039z"/>
<path fill-rule="evenodd" clip-rule="evenodd" d="M103.32,72.804c1.079,0.905,1.137,2.084,1.086,3.199
	c-0.181,3.972-0.45,7.94-0.694,11.908c-0.236,3.856-0.503,7.71-0.723,11.566c-0.183,3.185-0.49,6.38-0.399,9.56
	c0.043,1.501-0.089,2.886-0.476,4.292c-0.048,0.177-0.179,0.332-0.271,0.497c-0.184-0.116-0.392-0.209-0.544-0.354
	c-0.299-0.29-0.625-0.572-0.832-0.923c-0.243-0.409-0.536-0.89-0.521-1.329c0.125-3.776,0.248-7.552,0.509-11.321
	c0.189-2.737,0.676-5.455,0.872-8.194c0.296-4.159,0.458-8.33,0.67-12.495c0.061-1.199,0.102-2.397,0.142-3.597
	c0.011-0.342,0.082-0.726-0.04-1.021c-0.357-0.868-0.035-1.285,0.8-1.482C103.045,73.076,103.164,72.923,103.32,72.804z"/>
<path fill-rule="evenodd" clip-rule="evenodd" d="M122.208,97.495c-0.246,5.068-0.479,10.139-0.744,15.204
	c-0.153,2.933-0.931,5.737-1.787,8.522c-1.232,4.005-2.801,7.868-5.105,11.387c-0.403,0.618-1.085,1.049-1.578,1.615
	c-1.003,1.155-1.891,2.419-2.958,3.511c-2.622,2.685-5.785,4.597-9.19,6.12c-2.402,1.072-4.77,2.289-7.268,3.076
	c-3,0.947-6.119,1.524-9.199,2.206c-0.338,0.076-0.751-0.196-1.129-0.309c0.332-0.266,0.631-0.699,1.002-0.771
	c3.801-0.768,7.643-1.447,11.199-3.03c4.458-1.983,9.056-3.784,12.708-7.192c1.068-0.998,1.862-2.291,2.952-3.26
	c3.574-3.169,5.374-7.435,6.949-11.713c1.477-4.006,2.352-8.223,2.454-12.566c0.101-4.288,0.409-8.573,0.583-12.859
	c0.036-0.881-0.153-1.77-0.175-2.656c-0.005-0.246,0.215-0.498,0.333-0.744c0.215,0.169,0.577,0.31,0.619,0.516
	c0.199,0.965,0.311,1.947,0.454,2.924C122.287,97.482,122.247,97.487,122.208,97.495z"/>
<path fill-rule="evenodd" clip-rule="evenodd" d="M90.42,110.688c-0.289,0.924-0.615,1.963-1.02,3.253
	c-0.402-0.836-1.047-1.553-1.034-2.257c0.079-4.286,0.314-8.567,0.468-12.851c0.01-0.271-0.234-0.552-0.36-0.827
	c-0.25,0.27-0.527,0.52-0.732,0.82c-0.066,0.098,0.116,0.34,0.077,0.488c-0.091,0.356-0.247,0.696-0.377,1.042
	c-0.266-0.231-0.638-0.412-0.776-0.705c-0.58-1.218,0.054-2.773,1.39-3.01c1.108-0.197,1.12-0.732,0.968-1.547
	c-0.158-0.843-0.026-1.519,0.991-1.667c0.47-0.068,0.805-0.024,0.788,0.605c-0.017,0.58,0.102,1.162,0.112,1.745
	c0.012,0.527-0.04,1.056-0.076,1.823c0.845-1.107,1.478-2.079,2.253-2.915c0.689-0.745,1.481-1.424,2.33-1.979
	c0.77-0.503,1.929-0.243,2.348,0.338c0.438,0.605,0.404,2.334-0.116,2.82c-0.176,0.163-0.589,0.259-0.781,0.163
	c-0.19-0.095-0.31-0.466-0.336-0.729c-0.045-0.462,0.005-0.934,0.015-1.402c-0.48,0.201-1.146,0.268-1.413,0.629
	c-1.412,1.917-2.928,3.803-3.997,5.909c-0.716,1.411-0.765,3.147-0.543,4.827c0.157,1.198,0.03,2.432,0.176,3.714"/>
<path fill-rule="evenodd" clip-rule="evenodd" d="M200.694,110.97c0.456,1.576-0.227,2.962-1.588,3.355
	c-1.713,0.497-3.449,0.742-5.104-0.146c-1.872-1.008-3.335-2.446-3.813-4.591c-0.61-2.739-0.729-5.483,0.436-8.142
	c1.036-2.356,2.631-4.259,4.692-5.777c1.378-1.013,2.695-2.074,4.496-2.36c2.301-0.368,4.153,0.746,4.272,2.822
	c0.02,0.388-0.318,1.112-0.551,1.136c-0.537,0.056-0.992-0.253-1.081-0.981c-0.175-1.444-0.986-1.671-2.475-1.3
	c-2.646,0.66-4.471,2.347-5.739,4.546c-0.99,1.715-1.903,3.572-1.917,5.673c-0.002,0.164-0.067,0.429-0.173,0.469
	c-1.138,0.44-0.636,1.306-0.496,2.014c0.444,2.267,1.635,3.995,3.822,4.912c1.426,0.601,2.781,0.239,3.884-0.876
	C199.699,111.383,200.227,111.226,200.694,110.97z"/>
<path fill-rule="evenodd" clip-rule="evenodd" d="M20.183,86.512c-1.168-0.488-1.776-1.736-1.792-3.042
	c-0.046-3.812,1.831-6.867,4.429-9.23c1.995-1.817,4.547-3.154,7.378-3.66c5.79-1.033,11.608-1.66,17.497-1.688
	c3.528-0.017,7.055-0.213,10.584-0.315c0.408-0.01,0.83,0.014,1.224,0.114c0.209,0.053,0.369,0.303,0.549,0.464
	c-0.215,0.126-0.428,0.355-0.647,0.363c-2.643,0.084-5.287,0.122-7.93,0.199c-5.936,0.177-11.87,0.363-17.765,1.193
	c-3.456,0.486-6.729,1.492-9.412,3.739c-1.332,1.116-2.396,2.633-3.32,4.13c-1.268,2.055-1.74,4.329-0.877,6.725
	C20.194,85.763,20.151,86.07,20.183,86.512z"/>
<path fill-rule="evenodd" clip-rule="evenodd" d="M173.228,76.001c-0.322-0.235-0.719-0.414-0.956-0.718
	c-1.638-2.098-3.959-2.882-6.433-3.279c-2.674-0.43-5.367-0.984-8.053-1.006c-4.356-0.033-8.762-0.054-12.858,1.918
	c-1.307,0.629-2.721,1.043-4.084,1.56c-1.465,0.554-2.561,1.583-3.288,2.912c-0.356,0.648-0.296,1.514-0.483,2.266
	c-0.075,0.303-0.303,0.569-0.461,0.852c-0.319-0.201-0.899-0.386-0.913-0.608c-0.049-0.737-0.062-1.557,0.216-2.219
	c0.713-1.708,1.888-3.062,3.635-3.831c0.699-0.308,1.393-0.629,2.087-0.948c5.345-2.456,10.977-3.474,16.811-2.967
	c3.268,0.284,6.522,0.872,9.734,1.554c2.106,0.447,3.938,1.566,5,3.601c0.119,0.225,0.204,0.467,0.301,0.699
	C173.398,75.859,173.312,75.93,173.228,76.001z"/>
<path fill-rule="evenodd" clip-rule="evenodd" d="M43.687,143.013c-3.52-0.101-6.707-1.022-9.402-3.252
	c-1.639-1.356-3.059-2.921-3.871-4.938c-0.396-0.98,0.01-1.862,0.584-2.597c1.899-2.422,4.314-4.047,7.41-4.577
	c2.261-0.387,4.5-0.903,6.768-1.23c0.993-0.146,2.035,0.008,3.052,0.08c0.244,0.015,0.47,0.238,0.706,0.367
	c-0.023,0.097-0.045,0.194-0.068,0.293c-0.859,0.078-1.728,0.094-2.574,0.245c-2.832,0.506-5.66,1.027-8.478,1.604
	c-2.188,0.449-3.759,1.895-5.18,3.484c-1.048,1.175-0.949,2.227,0.016,3.541c2.449,3.336,5.729,5.182,9.819,5.71
	C43.891,141.929,44.052,142.126,43.687,143.013z"/>
<path fill-rule="evenodd" clip-rule="evenodd" d="M52.792,94.953c0.153-0.305,0.234-0.689,0.47-0.901
	c0.984-0.879,2.006-1.691,3.424-1.785c2.106-0.141,3.905,0.447,5.411,1.975c0.819,0.83,0.902,1.897,1.158,2.915
	c1.06,4.201,1.097,8.478,0.89,12.771c-0.028,0.571-0.168,1.189,0.47,1.596c0.075,0.047-0.031,0.374-0.054,0.571
	c-0.36-0.061-0.805-0.015-1.053-0.215c-0.202-0.161-0.233-0.617-0.232-0.941c0.004-2.215,0.165-4.44,0.024-6.645
	c-0.137-2.14-0.574-4.261-0.883-6.389c-0.031-0.221-0.103-0.436-0.13-0.656c-0.27-2.163-1.989-3.726-4.129-4.046
	c-1.953-0.291-3.55,0.061-4.749,1.716c-0.08,0.108-0.273,0.134-0.414,0.198C52.927,95.062,52.861,95.008,52.792,94.953z"/>
<path fill-rule="evenodd" clip-rule="evenodd" d="M105.33,79.209c0-1.507-0.023-3.014,0.022-4.519
	c0.007-0.269,0.302-0.526,0.464-0.79c0.167,0.254,0.483,0.51,0.478,0.762c-0.03,1.852-0.075,3.706-0.208,5.552
	c-0.257,3.552-0.615,7.096-0.855,10.65c-0.238,3.518-0.377,7.044-0.568,10.566c-0.184,3.355-0.378,6.711-0.568,10.066
	c-0.007,0.135,0.033,0.321-0.04,0.399c-0.207,0.218-0.461,0.39-0.697,0.583c-0.109-0.242-0.329-0.487-0.313-0.718
	c0.351-5.298,0.707-10.593,1.104-15.886c0.382-5.113,0.813-10.223,1.212-15.334c0.036-0.442,0.005-0.889,0.005-1.333
	C105.353,79.209,105.341,79.209,105.33,79.209z"/>
<path fill-rule="evenodd" clip-rule="evenodd" d="M79.276,134.433c-3.548-0.093-6.169-2.195-6.89-5.443
	c-0.088-0.398,0.037-1.006,0.306-1.273c0.224-0.221,0.884-0.253,1.211-0.092c2.617,1.306,4.832,3.125,6.572,5.484
	c0.18,0.242,0.191,0.748,0.062,1.033c-0.089,0.198-0.547,0.256-0.853,0.318C79.492,134.502,79.276,134.433,79.276,134.433z"/>
<path fill-rule="evenodd" clip-rule="evenodd" d="M147.899,111.733c0.147-0.735,0.265-1.479,0.447-2.206
	c1.127-4.5,0.891-9.062,0.716-13.631c-0.123-3.188-0.041-6.382-0.137-9.571c-0.032-1.191-0.311-2.375-0.477-3.562
	c0.105-0.06,0.214-0.121,0.318-0.181c0.22,0.361,0.597,0.706,0.631,1.085c0.254,2.862,0.479,5.728,0.636,8.598
	c0.16,2.944,0.346,5.893,0.307,8.836c-0.031,2.275-0.349,4.552-0.631,6.816c-0.133,1.08-0.44,2.145-0.751,3.191
	c-0.096,0.321-0.464,0.565-0.708,0.846C148.135,111.881,148.019,111.807,147.899,111.733z"/>
<path fill-rule="evenodd" clip-rule="evenodd" d="M85.621,131.753c-1.434-0.379-3.226-0.365-4.378-1.921
	c-0.64-0.862-0.583-1.453,0.339-2.023c1.474-0.919,3.002-0.798,4.513-0.073c0.833,0.397,1.71,0.751,2.445,1.292
	c0.464,0.34,0.958,0.991,0.953,1.498c-0.004,0.353-0.796,0.851-1.316,0.997C87.434,131.732,86.617,131.681,85.621,131.753z"/>
<path fill-rule="evenodd" clip-rule="evenodd" d="M37.473,92.539c0.122-2.911,0.229-5.82,0.379-8.729
	c0.013-0.268,0.282-0.522,0.431-0.783c0.176,0.256,0.508,0.515,0.503,0.767c-0.027,1.847-0.088,3.696-0.202,5.54
	c-0.277,4.549-0.52,9.103-0.907,13.644c-0.249,2.898-0.716,5.78-1.136,8.662c-0.04,0.271-0.446,0.49-0.683,0.733
	c-0.096-0.286-0.31-0.589-0.274-0.858c0.346-2.575,0.783-5.139,1.095-7.717c0.246-2.036,0.376-4.086,0.52-6.135
	C37.318,95.958,37.383,94.248,37.473,92.539z"/>
<path fill-rule="evenodd" clip-rule="evenodd" d="M192.838,107.221c0.281-3.227,1.205-6.23,3.415-8.666
	c0.825-0.91,1.94-1.598,3.018-2.221c0.492-0.285,1.22-0.222,1.837-0.199c0.186,0.006,0.362,0.399,0.544,0.617
	c-0.195,0.163-0.4,0.473-0.586,0.462c-1.5-0.097-2.586,0.857-3.473,1.731c-1.026,1.013-1.83,2.367-2.373,3.718
	c-0.625,1.562-1.338,3.163-1.118,4.968c0.139,1.12,0.434,1.999,1.589,2.485c0.423,0.179,0.676,0.76,1.009,1.158
	c-0.594,0.05-1.266,0.312-1.76,0.115C193.053,110.654,192.802,109.005,192.838,107.221z"/>
<path fill-rule="evenodd" clip-rule="evenodd" d="M210.36,86.028c-1.227-0.938-0.943-2.265-1.203-3.374
	c-0.243-1.024-0.258-2.104-0.35-3.161c-0.068-0.804-0.066-1.582,1.113-1.457c0.118,0.013,0.271-0.048,0.374-0.124
	c1.082-0.809,1.086-0.811,1.543,0.227c0.459,0,1.096-0.15,1.215,0.034c0.193,0.303,0.166,0.858,0.034,1.241
	c-0.639,1.843-1.331,3.667-2.035,5.488C210.91,85.271,210.634,85.592,210.36,86.028z"/>
<path fill-rule="evenodd" clip-rule="evenodd" d="M73.024,106.807c0.036,1.68,0.095,3.361,0.084,5.042
	c-0.001,0.291-0.253,0.787-0.469,0.832c-0.594,0.132-0.57-0.402-0.562-0.789c0.031-1.467,0.138-2.932,0.121-4.397
	c-0.026-2.266-0.265-4.536-0.151-6.793c0.069-1.371,0.598-2.726,0.993-4.067c0.076-0.254,0.474-0.525,0.762-0.579
	c0.326-0.06,0.693,0.118,1.043,0.194c-0.214,0.198-0.433,0.389-0.635,0.597c-0.186,0.191-0.419,0.374-0.521,0.606
	c-0.563,1.313-0.81,2.672-0.713,4.122c0.113,1.738,0.091,3.485,0.13,5.229C73.078,106.805,73.051,106.806,73.024,106.807z"/>
<path fill-rule="evenodd" clip-rule="evenodd" d="M165.627,115.335c-0.256-0.322-0.645-0.606-0.745-0.972
	c-0.578-2.1-1.228-4.195-1.583-6.335c-0.479-2.849-0.906-5.688-2.117-8.34c-0.235-0.518-0.476-1.033-0.819-1.783
	c1.316,0.439,1.75,1.351,2.168,2.214c0.978,2.02,1.434,4.174,1.688,6.405c0.284,2.55,0.64,5.099,1.872,7.432
	c0.161,0.308-0.031,0.804-0.061,1.215C165.894,115.224,165.762,115.28,165.627,115.335z"/>
<path fill-rule="evenodd" clip-rule="evenodd" d="M222.43,134.412c-0.274,2.6-1.182,4.695-2.285,6.716
	c-0.522,0.954-1.12,1.873-1.618,2.839c-1.282,2.479-3.553,4.055-5.429,5.993c-0.151,0.16-0.562,0.074-0.853,0.101
	c0.06-0.302,0.018-0.698,0.197-0.887c0.795-0.843,1.646-1.636,2.491-2.432c2.331-2.192,3.831-4.949,5.092-7.82
	c0.601-1.361,0.84-2.879,1.288-4.311c0.11-0.342,0.411-0.623,0.624-0.929C222.142,133.986,222.346,134.288,222.43,134.412z"/>
<path fill-rule="evenodd" clip-rule="evenodd" d="M219.194,87.663c-1.763,0.341-3.462,0.701-5.173,0.976
	c-0.32,0.052-0.916-0.158-0.99-0.376c-0.1-0.316,0.039-0.872,0.284-1.113c1.188-1.167,2.42-2.289,3.689-3.362
	c0.361-0.305,0.905-0.39,1.366-0.575c0.041,0.293,0.196,0.634,0.101,0.871c-0.244,0.606-0.604,1.167-0.98,1.865
	c0.753,0.23,1.29,0.395,1.829,0.557C219.275,86.932,219.229,87.329,219.194,87.663z"/>
<path fill-rule="evenodd" clip-rule="evenodd" d="M215.259,81.604c0.477-0.079,0.819-0.204,1.143-0.169
	c0.325,0.035,0.834,0.164,0.9,0.369c0.085,0.258-0.112,0.727-0.339,0.945c-0.516,0.492-1.182,0.83-1.682,1.335
	c-0.809,0.818-1.507,1.739-2.304,2.57c-0.143,0.148-0.529,0.129-0.774,0.072c-0.094-0.022-0.188-0.4-0.14-0.579
	c0.557-2.057,1.137-4.11,1.726-6.159c0.083-0.287,0.251-0.547,0.378-0.822c0.273,0.273,0.653,0.501,0.79,0.83
	C215.146,80.451,215.154,80.981,215.259,81.604z"/>
<path fill-rule="evenodd" clip-rule="evenodd" d="M208.445,85.146c-0.09,0.169-0.235,0.445-0.381,0.721
	c-0.241-0.151-0.553-0.25-0.722-0.463c-1.081-1.358-2.146-2.731-3.182-4.126c-0.174-0.236-0.178-0.597-0.261-0.9
	c0.316-0.081,0.678-0.302,0.94-0.218c0.905,0.292,1.268-0.015,1.327-0.916c0.011-0.158,0.301-0.402,0.472-0.412
	c0.179-0.01,0.504,0.185,0.539,0.341C207.615,81.104,208.007,83.043,208.445,85.146z"/>
<path fill-rule="evenodd" clip-rule="evenodd" d="M225.954,116.822c-0.49,3.298-0.992,6.692-1.505,10.085
	c-0.062,0.413-0.096,0.862-0.284,1.215c-0.147,0.284-0.513,0.454-0.778,0.675c-0.132-0.349-0.417-0.723-0.365-1.047
	c0.233-1.528,0.596-3.039,0.843-4.566c0.34-2.082,0.627-4.177,0.919-6.271c0.039-0.271-0.062-0.567-0.018-0.837
	c0.051-0.281,0.205-0.549,0.312-0.82c0.253,0.173,0.596,0.295,0.734,0.536C225.958,116.041,225.906,116.401,225.954,116.822z"/>
<path fill-rule="evenodd" clip-rule="evenodd" d="M202.595,84.344c-0.202-0.729-0.373-1.347-0.626-2.268
	c0.664,0.453,1.17,0.669,1.492,1.044c0.935,1.088,1.824,2.217,2.664,3.381c0.214,0.301,0.174,0.785,0.25,1.186
	c-0.365-0.041-0.765,0.004-1.086-0.138c-1.401-0.621-2.779-1.292-4.164-1.952c-0.246-0.118-0.534-0.222-0.696-0.418
	c-0.149-0.186-0.244-0.502-0.202-0.733c0.02-0.125,0.38-0.267,0.583-0.265C201.345,84.189,201.883,84.272,202.595,84.344z"/>
<path fill-rule="evenodd" clip-rule="evenodd" d="M209.549,91.194c-0.817-0.22-2.452-1.611-2.492-2.286
	c-0.013-0.175,0.293-0.498,0.491-0.532c0.767-0.131,1.502-0.203,1.976-0.974c0.294-0.475,0.607-0.414,0.887,0.135
	c0.153,0.297,0.527,0.587,0.856,0.67c0.821,0.207,1.165,0.728,0.6,1.306C211.207,90.184,210.331,90.643,209.549,91.194z"/>
<path fill-rule="evenodd" clip-rule="evenodd" d="M261.447,99.496c-0.028,0.415,0.037,0.862-0.099,1.239
	c-0.62,1.741-1.268,3.473-1.98,5.178c-0.133,0.319-0.663,0.716-0.933,0.734c-0.228-0.245-0.241-0.864-0.125-1.217
	c0.583-1.749,1.218-3.483,1.907-5.192c0.15-0.377,0.611-0.81,0.917-0.943C261.237,99.361,261.343,99.429,261.447,99.496z"/>
<path fill-rule="evenodd" clip-rule="evenodd" d="M242.602,106.757c-0.229,2.267,2.047,2.62,2.883,4.073
	c-1.24,0.523-3.036-0.386-3.734-1.752C241.375,108.338,241.652,107.333,242.602,106.757z"/>
<path fill-rule="evenodd" clip-rule="evenodd" d="M44.637,91.72c0.218-0.275,0.411-0.761,0.657-0.79
	c1.293-0.147,2.598-0.179,3.926-0.046c-1.369,0.864-2.867,1.081-4.396,1.163C44.762,91.938,44.7,91.829,44.637,91.72z"/>
<path fill-rule="evenodd" clip-rule="evenodd" fill="#FFFFFF" d="M173.408,132.533c-0.438-0.082-0.886-0.267-1.31-0.226
	c-2.963,0.28-5.912,0.701-8.88,0.893c-2.46,0.154-4.776,0.802-7.093,1.546c-2.063,0.664-3.897,1.61-5.183,3.472
	c-1.029,1.492-1.029,3.693-0.229,4.771c2.411,3.244,5.727,5.101,9.706,5.751c0.297,0.052,0.646-0.229,0.975-0.352
	c-0.016-0.104-0.029-0.207-0.042-0.308c-0.475-0.263-0.919-0.648-1.426-0.768c-2.363-0.55-4.403-1.719-6.201-3.281
	c-0.786-0.682-1.543-1.526-1.982-2.453c-0.896-1.884,0.477-3.828,2.155-4.666c2.445-1.217,5.059-2.126,7.825-2.363
	C165.642,134.217,169.556,133.904,173.408,132.533z"/>
<path fill-rule="evenodd" clip-rule="evenodd" fill="#FFFFFF" d="M225.789,111.222c-0.512-0.011-1.451-1.042-1.399-1.804
	c0.184-2.627,0.323-5.266,0.687-7.872c0.115-0.823,0.297-1.876,1.323-2.371c0.25-0.122,0.266-0.669,0.474-0.958
	c1.156-1.599,4.296-2.301,5.903-1.193c0.601,0.412,1.228,1.217,1.295,1.896c0.38,3.768-0.021,7.52-1.507,10.99
	c-1.045,2.442-2.963,3.012-5.624,1.747c0.491,0,1.049,0.104,1.541-0.026c0.693-0.183,0.739-0.694,0.174-1.156
	c-0.138-0.11-0.293-0.2-0.45-0.275c-1.485-0.711-1.909-1.332-1.649-2.947c0.309-1.908,0.711-3.805,1.173-5.681
	c0.483-1.965,1.855-3.027,3.83-3.243c0.714-0.078,0.946-0.323,0.78-0.988c-1.587-0.442-3.288,0.104-4.271,1.334
	c-1.031,1.286-1.706,2.702-1.936,4.36c-0.209,1.489-0.744,2.946-0.834,4.434C225.229,108.687,225.603,109.932,225.789,111.222z"/>
<path fill-rule="evenodd" clip-rule="evenodd" fill="#FFFFFF" d="M60.301,109.537c0.107,1.222,0.032,1.335-1.149,1.596
	c-0.815,0.181-1.662,0.541-2.451,0.448c-1.082-0.13-2.346-0.039-3.155-0.964c-0.493-0.564-0.941-1.281-1.098-1.998
	c-0.497-2.273,1.228-4.245,3.432-4.345c1.207-0.053,2.437,0.258,3.645,0.464c0.168,0.028,0.374,0.39,0.398,0.614
	C60.075,106.744,60.18,108.142,60.301,109.537z M55.894,109.911c-0.04-0.096-0.08-0.19-0.12-0.282
	c-1.32-0.289-1.941-1.204-1.562-2.298c0.357-1.028,1.223-1.605,2.387-1.668c0.239-0.011,0.467-0.238,0.699-0.366
	c-0.226-0.12-0.454-0.347-0.678-0.344c-2.024,0.033-3.999,1.922-3.282,4.101c0.218,0.666,0.615,1.339,1.413,1.373
	C55.125,110.441,55.512,110.093,55.894,109.911z"/>
<path fill-rule="evenodd" clip-rule="evenodd" fill="#FFFFFF" d="M177.232,104.633c0.163-2.762,2.041-5.735,4.242-6.759
	c-0.875,1.108-1.739,2.147-2.533,3.237c-0.306,0.416-0.556,0.929-0.634,1.429c-0.045,0.309,0.278,0.675,0.436,1.015
	c0.29-0.208,0.753-0.359,0.837-0.629c0.806-2.586,2.675-4.129,4.995-5.245c0.367-0.178,0.833-0.151,1.207-0.32
	c0.319-0.143,0.575-0.434,0.858-0.658c-0.293-0.193-0.633-0.594-0.867-0.54c-0.938,0.216-1.852,0.552-2.761,0.888
	c-0.373,0.139-0.708,0.386-1.216,0.671c0.88-1.608,3.58-2.71,4.997-2.119c0.269,0.113,0.529,0.551,0.568,0.87
	c0.214,1.622-0.446,3.027-1.495,4.152C183.555,103.1,180.467,103.997,177.232,104.633z"/>
<path fill-rule="evenodd" clip-rule="evenodd" fill="#FFFFFF" d="M248.138,95.346c-1.718,0.11-2.961,0.954-3.892,2.149
	c-0.999,1.284-1.854,2.686-2.693,4.083c-0.165,0.278-0.031,0.784,0.069,1.155c0.041,0.155,0.377,0.343,0.545,0.316
	c0.166-0.03,0.378-0.293,0.418-0.484c0.447-2.36,1.872-4.07,3.686-5.486c0.499-0.388,1.187-0.526,1.925-0.837
	c0.196,2.375-0.482,4.081-2.212,5.33c-1.331,0.962-2.663,1.922-4.015,2.858c-0.408,0.284-0.876,0.482-1.35,0.737
	c-0.603-3.927,1.948-8.703,5.392-10.226C246.71,94.633,247.429,94.413,248.138,95.346z"/>
<path fill-rule="evenodd" clip-rule="evenodd" d="M170.771,133.623c-3.956,1.407-7.979,1.729-12.002,2.07
	c-2.844,0.243-5.526,1.178-8.04,2.432c-1.722,0.856-3.135,2.856-2.216,4.791c0.454,0.949,1.23,1.818,2.038,2.52
	c1.848,1.608,3.94,2.806,6.371,3.373c0.521,0.121,0.977,0.516,1.463,0.784c0.014,0.105,0.029,0.213,0.043,0.317
	c-0.334,0.128-0.693,0.416-0.998,0.365c-4.09-0.668-7.496-2.578-9.974-5.911c-0.822-1.107-0.822-3.37,0.235-4.903
	c1.321-1.911,3.206-2.883,5.326-3.565c2.381-0.764,4.759-1.429,7.284-1.59c3.048-0.194,6.079-0.625,9.121-0.917
	C169.864,133.351,170.321,133.538,170.771,133.623z"/>
<path fill-rule="evenodd" clip-rule="evenodd" d="M55.894,109.911c-0.381,0.182-0.769,0.53-1.142,0.515
	c-0.798-0.034-1.195-0.707-1.413-1.373c-0.717-2.179,1.257-4.067,3.282-4.101c0.224-0.003,0.452,0.224,0.678,0.344
	c-0.232,0.128-0.46,0.355-0.699,0.366c-1.165,0.063-2.03,0.64-2.387,1.668c-0.38,1.095,0.242,2.009,1.562,2.298
	C55.813,109.721,55.854,109.815,55.894,109.911z"/>
<path fill-rule="evenodd" clip-rule="evenodd" d="M91.268,86.029c-1.23-0.939-0.947-2.265-1.206-3.375
	c-0.241-1.024-0.258-2.104-0.349-3.161c-0.069-0.804-0.067-1.582,1.111-1.457c0.121,0.013,0.274-0.048,0.375-0.124
	c1.085-0.809,1.087-0.811,1.546,0.227c0.458,0,1.096-0.15,1.213,0.034c0.195,0.303,0.167,0.858,0.035,1.241
	c-0.639,1.845-1.331,3.667-2.035,5.489C91.814,85.271,91.54,85.592,91.268,86.029z"/>
<path fill-rule="evenodd" clip-rule="evenodd" d="M100.1,87.663c-1.762,0.341-3.46,0.701-5.172,0.978
	c-0.32,0.05-0.918-0.158-0.99-0.378c-0.102-0.316,0.038-0.872,0.284-1.113c1.186-1.167,2.418-2.289,3.691-3.362
	c0.358-0.305,0.904-0.389,1.364-0.575c0.042,0.293,0.197,0.634,0.102,0.871c-0.246,0.606-0.605,1.167-0.982,1.866
	c0.753,0.229,1.292,0.394,1.83,0.557C100.179,86.932,100.136,87.329,100.1,87.663z"/>
<path fill-rule="evenodd" clip-rule="evenodd" d="M96.165,81.604c0.475-0.079,0.817-0.204,1.14-0.169
	c0.327,0.035,0.837,0.164,0.902,0.369c0.084,0.259-0.111,0.727-0.339,0.945c-0.515,0.493-1.182,0.83-1.68,1.335
	c-0.809,0.818-1.511,1.739-2.306,2.57c-0.141,0.149-0.528,0.13-0.773,0.072c-0.092-0.022-0.188-0.4-0.14-0.579
	c0.558-2.057,1.137-4.11,1.726-6.159c0.083-0.287,0.251-0.547,0.379-0.822c0.272,0.273,0.651,0.501,0.788,0.83
	C96.052,80.451,96.059,80.981,96.165,81.604z"/>
<path fill-rule="evenodd" clip-rule="evenodd" d="M89.35,85.146c-0.09,0.169-0.234,0.445-0.38,0.721
	c-0.243-0.151-0.553-0.25-0.722-0.463c-1.082-1.358-2.146-2.731-3.182-4.126c-0.174-0.235-0.178-0.597-0.259-0.9
	c0.315-0.081,0.677-0.302,0.939-0.218c0.906,0.292,1.269-0.015,1.328-0.916c0.011-0.158,0.3-0.402,0.473-0.412
	c0.179-0.01,0.502,0.185,0.538,0.341C88.519,81.104,88.912,83.043,89.35,85.146z"/>
<path fill-rule="evenodd" clip-rule="evenodd" d="M83.499,84.344c-0.201-0.729-0.372-1.347-0.625-2.268
	c0.664,0.453,1.171,0.67,1.494,1.044c0.934,1.089,1.825,2.217,2.662,3.381c0.215,0.301,0.174,0.786,0.251,1.186
	c-0.364-0.041-0.765,0.004-1.084-0.137c-1.403-0.622-2.781-1.293-4.165-1.953c-0.246-0.118-0.533-0.222-0.695-0.418
	c-0.152-0.186-0.246-0.502-0.204-0.733c0.021-0.125,0.38-0.267,0.583-0.265C82.252,84.189,82.788,84.273,83.499,84.344z"/>
<path fill-rule="evenodd" clip-rule="evenodd" d="M90.453,91.194c-0.815-0.22-2.453-1.611-2.492-2.286
	c-0.011-0.175,0.295-0.498,0.494-0.532c0.766-0.131,1.501-0.203,1.975-0.974c0.293-0.474,0.606-0.414,0.888,0.135
	c0.153,0.298,0.526,0.588,0.854,0.67c0.821,0.208,1.167,0.728,0.6,1.306C92.113,90.185,91.235,90.644,90.453,91.194z"/>
<path fill-rule="evenodd" clip-rule="evenodd" d="M209.742,111.126c-0.289,0.926-0.615,1.964-1.02,3.254
	c-0.401-0.837-1.047-1.553-1.033-2.258c0.078-4.284,0.312-8.565,0.467-12.85c0.01-0.271-0.233-0.552-0.359-0.827
	c-0.249,0.27-0.526,0.52-0.732,0.82c-0.065,0.098,0.116,0.34,0.077,0.488c-0.091,0.357-0.248,0.697-0.375,1.042
	c-0.269-0.232-0.64-0.413-0.778-0.705c-0.579-1.216,0.052-2.772,1.388-3.009c1.108-0.197,1.124-0.732,0.972-1.547
	c-0.16-0.843-0.029-1.52,0.988-1.668c0.47-0.068,0.807-0.023,0.788,0.605c-0.015,0.579,0.102,1.162,0.114,1.746
	c0.011,0.526-0.042,1.055-0.076,1.822c0.844-1.107,1.476-2.079,2.251-2.915c0.689-0.744,1.481-1.425,2.33-1.978
	c0.771-0.504,1.93-0.244,2.349,0.336c0.438,0.605,0.403,2.334-0.115,2.819c-0.177,0.164-0.589,0.26-0.783,0.164
	c-0.189-0.095-0.309-0.466-0.333-0.729c-0.046-0.462,0.002-0.934,0.015-1.402c-0.482,0.201-1.148,0.268-1.416,0.629
	c-1.408,1.917-2.926,3.803-3.993,5.909c-0.719,1.411-0.77,3.148-0.545,4.83c0.158,1.195,0.028,2.43,0.176,3.712"/>
<path fill-rule="evenodd" clip-rule="evenodd" d="M268.475,133.47c-2.596-0.93-5.19-1.253-7.828-0.133
	c-1.115,0.473-2.266,0.383-2.84-0.054c1.514-1.374,3.766-2.132,3.942-4.755c-0.03,0.025-0.065,0.009,0.005-0.026
	c-0.003,0.012-0.005,0.02-0.005,0.026c0.028-0.021,0.053-0.076-0.022-0.183c-0.645-0.973-2.157-0.288-2.898-0.107
	c-0.613,0.15-1.245,0.315-1.799,0.602c-1.704,0.888-3.6,1.608-3.97,3.883c-0.024,0.164-0.261,0.428-0.381,0.42
	c-0.946-0.068-1.889-0.191-2.696-0.28c1.306-1.355,2.534-2.667,3.805-3.938c0.671-0.676,0.317-1.361-0.048-1.903
	c-0.193-0.291-0.881-0.475-1.266-0.378c-3.387,0.809-6.086,2.542-7.527,5.714c-3.787-0.21-7.614-0.433-11.439-0.623
	c-1.188-0.062-2.386,0.032-3.57-0.052c-2.393-0.169-4.784-0.402-7.169-0.632c-0.589-0.059-1.301-0.09-1.2-0.974
	c0.107-0.979,0.228-1.962,0.447-2.918c0.746-3.235,1.494-6.451,1.53-9.804c0.016-1.52,0.369-3.035,0.611-4.854
	c0.601,0.492,0.964,0.719,1.234,1.027c1.421,1.616,4.743,1.539,6.204,0.565c2.302-1.528,3.709-3.818,4.131-6.39
	c0.496-2.999,0.442-6.103,0.44-9.162c-0.002-1.888-1.515-3.666-3.185-3.892c-2.563-0.346-5.002-0.001-6.901,2.02
	c-0.205,0.217-0.325,0.516-0.483,0.777c-0.105-0.067-0.208-0.136-0.312-0.204c-0.046-0.371-0.077-0.744-0.14-1.111
	c-0.199-1.136-0.415-2.279-1.74-2.656c-1.336-0.38-2.577-0.235-3.619,0.802c-0.933,0.929-0.797,2.17,0.187,2.832
	c0.288-0.52,0.493-1.142,0.905-1.558c0.346-0.347,1.021-0.721,1.39-0.598c0.505,0.167,0.99,0.728,1.236,1.239
	c0.206,0.434,0.117,1.045,0.057,1.565c-0.411,3.6-0.858,7.196-1.27,10.798c-0.438,3.841-0.747,7.702-1.296,11.525
	c-0.513,3.528-1.271,7.021-1.921,10.534c-0.568,0-0.956,0.023-1.339-0.002c-3.02-0.187-6.039-0.392-9.061-0.572
	c-4.039-0.244-8.081-0.509-12.126-0.694c-5.063-0.232-10.131-0.54-15.198-0.551c-5.215-0.011-10.429,0.291-15.644,0.461
	c-5.803,0.188-11.497,1.035-17.099,2.6c-3.604,1.007-5.966,3.405-7.55,6.598c-0.87,1.746-0.309,3.661,0.243,5.456
	c0.61,1.982,2.036,3.363,3.424,4.85c2.603,2.78,5.887,4.147,9.409,5.092c2.44,0.653,4.93,1.126,7.399,1.665
	c1.824,0.396,3.634,0.935,5.479,1.12c3.41,0.336,6.839,0.612,10.261,0.638c4.076,0.031,8.156-0.202,12.233-0.373
	c2.707-0.112,5.351-0.653,7.886-1.607c2.04-0.765,4.041-1.63,6.055-2.466c4.817-1.998,9.193-4.544,12.192-9.05
	c1.985-2.982,3.673-6.067,4.634-9.523c0.396-1.423,0.84-1.739,2.326-1.496c0.901,0.147,1.807,0.309,2.718,0.356
	c1.293,0.065,2.597-0.033,3.892,0.046c5.3,0.335,10.597,0.706,16,1.071c0.114,1.808,1.321,3.085,2.688,4.144
	c1.038,0.804,2.335,1.26,3.479,1.935c0.582,0.343,1.151,0.42,1.48-0.143c0.338-0.575,0.954-1.256,0.098-1.972
	c-0.346-0.289-0.583-0.705-0.917-1.016c-1.04-0.969-2.1-1.919-3.335-3.038c1.212,0.116,2.211,0.26,3.214,0.296
	c0.916,0.031,1.724,0.031,1.572,1.33c-0.036,0.305,0.17,0.727,0.402,0.949c0.95,0.917,1.842,1.987,2.975,2.597
	c1.098,0.589,2.448,0.82,3.712,0.926c0.475,0.036,1.372-0.678,1.438-1.137c0.087-0.627-0.165-1.428-0.914-1.911
	c-0.838-0.544-1.568-1.262-2.345-1.899c1.066-1.382,1.082-1.378,2.056,0.076c0.191,0.286,0.453,0.545,0.738,0.74
	c2.299,1.598,4.603,1.729,7.097,0.285c0.729-0.424,0.922-0.775,0.957-1.488C269.644,134.063,269.162,133.718,268.475,133.47z
	 M225.076,101.546c0.115-0.823,0.297-1.876,1.323-2.371c0.25-0.122,0.266-0.669,0.474-0.958c1.156-1.599,4.296-2.301,5.903-1.193
	c0.601,0.412,1.228,1.217,1.295,1.896c0.38,3.768-0.021,7.52-1.507,10.99c-1.045,2.442-2.963,3.012-5.624,1.747
	c0.491,0,1.049,0.104,1.541-0.026c0.693-0.183,0.739-0.694,0.174-1.156c-0.138-0.11-0.293-0.2-0.45-0.275
	c-1.485-0.711-1.909-1.332-1.649-2.947c0.309-1.908,0.711-3.805,1.173-5.681c0.483-1.965,1.855-3.027,3.83-3.243
	c0.714-0.078,0.946-0.323,0.78-0.988c-1.587-0.442-3.288,0.104-4.271,1.334c-1.031,1.286-1.706,2.702-1.936,4.36
	c-0.209,1.489-0.744,2.946-0.834,4.434c-0.069,1.217,0.304,2.462,0.49,3.752c-0.512-0.011-1.451-1.042-1.399-1.804
	C224.573,106.791,224.713,104.152,225.076,101.546z M198.479,153.12l-3.049,0.808c-2.983,0.651-5.916,1.406-9.018,1.358
	c-1.782-0.025-3.577,0.417-5.357,0.361c-3.339-0.105-6.697-0.24-10.005-0.69c-4.702-0.642-9.43-1.436-13.78-3.42
	c-3.565-1.624-7.26-3.082-10.343-5.616c-2.287-1.878-3.193-4.319-2.693-7.222c0.302-1.757,1.767-2.559,3.198-3.161
	c1.811-0.753,3.71-1.314,5.598-1.855c2.161-0.624,4.338-1.216,6.54-1.66c1.229-0.25,2.525-0.167,3.79-0.254
	c3.339-0.231,6.674-0.521,10.015-0.691c1.684-0.085,3.379,0.052,5.066,0.072c3.316,0.043,6.63,0.046,9.942,0.12
	c4.394,0.098,8.79,0.22,13.187,0.394c4.719,0.179,9.436,0.415,14.151,0.651c0.872,0.045,1.733,0.228,2.744,0.367
	c-0.11,0.817-0.238,1.634-0.409,2.436c-0.125,0.522-0.265,1.04-0.458,1.538c-0.553,1.43-1.166,2.831-1.907,4.16
	c-0.496,0.833-1.018,1.643-1.586,2.418c-0.387,0.506-0.796,0.997-1.247,1.46c-0.456,0.473-0.913,0.942-1.364,1.421
	c-0.848,0.726-1.849,1.277-2.746,1.951C205.641,150.394,202.211,152.093,198.479,153.12z"/>
<path fill-rule="evenodd" clip-rule="evenodd" fill="none" stroke="#000000" stroke-miterlimit="10" d="M52.715,16.646
	c3.345,1.54,6.457,3.124,9.697,4.434c5.891,2.381,11.847,2.133,17.694-0.186c4.223-1.675,7.986-3.994,11.632-6.655
	c5.526-4.032,11.404-7.676,17.331-11.195c3.525-2.094,7.689-3.146,11.851-3.036c7.135,0.189,13.204,3.169,18.681,7.26
	c1.247,0.931,2.566,1.796,3.703,2.833c0.964,0.879,1.559,0.391,2.292-0.188c4.587-3.615,9.264-7.099,15.162-8.753
	c5.769-1.618,11.37-1.306,16.893,1.026c5.827,2.461,10.644,6.257,15.667,9.814c5.002,3.545,9.946,7.202,15.976,9.256
	c7.393,2.518,14.413,1.642,21.181-1.833c1.773-0.911,3.5-1.9,5.434-2.952c0.32,0.577,0.668,1.118,0.926,1.693
	c1.909,4.228,4.302,8.222,7.569,11.646c3.653,3.83,8.653,5.478,13.877,6.572c5.645,1.183,10.428,3.812,14.893,7.176
	c6.729,5.065,11.195,11.462,13.498,19.133c1.697,5.646,2.127,11.396,1.549,17.306c-0.72,7.323-2.607,14.329-5.151,21.231
	c-0.352,0.951-0.611,1.965-1.157,2.812c-1.514,2.343-1.008,4.601,0.052,6.895c2.767,6.007,4.561,12.3,5.688,18.711
	c1.823,10.354,1.312,20.603-4.278,29.992c-5.63,9.449-13.775,16.224-25.473,18.741c-5.276,1.134-10.472,2.8-13.87,6.956
	c-2.638,3.229-4.599,6.935-6.834,10.44c-0.485,0.761-0.874,1.573-1.352,2.436c-1.907-1.061-3.742-2.223-5.704-3.143
	c-4.22-1.975-8.622-3.202-13.457-3.051c-4.704,0.147-8.999,1.556-12.771,3.875c-5.816,3.584-11.263,7.685-16.932,11.48
	c-4.824,3.23-9.891,6.177-15.885,7c-5.62,0.772-11.034-0.359-15.867-3.109c-3.413-1.94-6.578-4.274-9.77-6.534
	c-0.963-0.683-1.468-0.565-2.371,0.08c-3.081,2.198-6.098,4.542-9.443,6.343c-7.332,3.941-14.976,4.704-22.889,1.222
	c-4.305-1.895-8.068-4.466-11.869-7.079c-5.498-3.788-10.65-8.036-16.924-10.817c-8.532-3.784-16.681-3.077-24.642,1.346
	c-1.518,0.844-3.031,1.692-4.372,2.438c-2.017-3.345-3.829-6.893-6.195-10.085c-1.527-2.058-3.861-3.602-5.847-5.364
	c-3.798-3.372-8.926-3.756-13.581-5.209c-3.913-1.218-7.423-3.099-10.691-5.463c-8.168-5.899-13.396-13.532-15.515-22.896
	c-1.208-5.341-1.529-10.816-0.507-16.226C1.675,127.39,3,121.797,4.388,116.225c0.464-1.862,1.359-3.661,2.268-5.397
	c1.225-2.34,0.582-4.655-0.065-6.875c-1.71-5.87-4.06-11.604-5.377-17.542c-1.399-6.315-1.466-12.771-0.372-19.247
	c0.715-4.234,2.241-8.169,4.149-11.947c1.281-2.534,3.319-4.784,5.26-6.974c3.603-4.062,7.877-7.471,13.084-9.607
	c3.121-1.281,6.46-2.132,9.75-3.022c4.453-1.203,7.64-4.038,11.097-6.696C48.5,25.595,50.168,20.89,52.715,16.646z"/>
<path fill-rule="evenodd" clip-rule="evenodd" d="M143.546,40.722c-2.828-1.951-2.343-4.929-3.041-7.367
	c-0.651-2.251-0.801-4.648-1.119-6.987c-0.24-1.78-0.32-3.509,2.315-3.359c0.266,0.017,0.599-0.137,0.82-0.316
	c2.316-1.916,2.324-1.92,3.455,0.336c1.02-0.05,2.418-0.452,2.703-0.055c0.462,0.653,0.463,1.89,0.211,2.753
	c-1.221,4.167-2.562,8.298-3.929,12.42C144.687,38.983,144.106,39.725,143.546,40.722z"/>
<path fill-rule="evenodd" clip-rule="evenodd" d="M163.361,43.399c-3.883,0.951-7.62,1.934-11.394,2.732
	c-0.707,0.147-2.053-0.253-2.241-0.731c-0.257-0.693-0.008-1.941,0.51-2.505c2.514-2.721,5.131-5.351,7.837-7.873
	c0.77-0.715,1.97-0.966,2.975-1.426c0.123,0.649,0.506,1.388,0.318,1.926c-0.478,1.375-1.216,2.66-1.977,4.252
	c1.698,0.428,2.909,0.737,4.125,1.041C163.461,41.766,163.402,42.655,163.361,43.399z"/>
<path fill-rule="evenodd" clip-rule="evenodd" d="M153.954,30.358c1.053-0.225,1.801-0.541,2.521-0.497
	c0.729,0.04,1.873,0.274,2.043,0.721c0.216,0.563-0.171,1.627-0.651,2.137c-1.093,1.148-2.536,1.972-3.593,3.15
	c-1.708,1.906-3.162,4.029-4.843,5.963c-0.302,0.346-1.162,0.345-1.713,0.243c-0.211-0.039-0.461-0.87-0.373-1.271
	c1.014-4.632,2.082-9.258,3.167-13.876c0.153-0.647,0.499-1.246,0.752-1.869c0.636,0.578,1.506,1.043,1.846,1.759
	C153.578,27.809,153.656,28.986,153.954,30.358z"/>
<path fill-rule="evenodd" clip-rule="evenodd" d="M139.194,38.972c-0.181,0.385-0.474,1.015-0.769,1.644
	c-0.552-0.309-1.256-0.496-1.654-0.951c-2.551-2.902-5.068-5.839-7.519-8.827c-0.413-0.507-0.46-1.308-0.678-1.973
	c0.695-0.214,1.474-0.744,2.067-0.586c2.043,0.551,2.815-0.17,2.85-2.18c0.007-0.353,0.625-0.925,1.003-0.966
	c0.397-0.042,1.142,0.356,1.237,0.701C136.911,30.077,137.991,34.344,139.194,38.972z"/>
<path fill-rule="evenodd" clip-rule="evenodd" d="M127.007,36.917c-0.529-1.597-0.976-2.953-1.638-4.973
	c1.525,0.936,2.673,1.36,3.431,2.162c2.195,2.316,4.294,4.729,6.289,7.226c0.507,0.646,0.47,1.727,0.685,2.609
	c-0.817-0.052-1.7,0.091-2.43-0.191c-3.182-1.229-6.318-2.57-9.467-3.888c-0.561-0.236-1.211-0.435-1.593-0.854
	c-0.353-0.398-0.598-1.091-0.529-1.608c0.03-0.278,0.816-0.634,1.267-0.649C124.211,36.709,125.417,36.833,127.007,36.917z"/>
<path fill-rule="evenodd" clip-rule="evenodd" d="M143.208,51.389c-1.841-0.398-5.625-3.313-5.787-4.81
	c-0.048-0.39,0.597-1.139,1.033-1.236c1.69-0.375,3.316-0.614,4.287-2.379c0.601-1.086,1.305-0.986,1.984,0.204
	c0.374,0.643,1.237,1.25,1.977,1.396c1.849,0.371,2.669,1.493,1.476,2.84C146.785,48.964,144.887,50.08,143.208,51.389z"/>
<path fill-rule="evenodd" clip-rule="evenodd" d="M179.466,53.141c-2.351-0.841-4.699-1.134-7.088-0.12
	c-1.01,0.428-2.051,0.347-2.571-0.048c1.371-1.244,3.409-1.93,3.569-4.305c-0.027,0.023-0.059,0.008,0.005-0.024
	c-0.003,0.011-0.005,0.018-0.005,0.024c0.026-0.019,0.048-0.069-0.021-0.166c-0.583-0.88-1.953-0.261-2.624-0.097
	c-0.555,0.136-1.127,0.286-1.628,0.544c-1.543,0.804-3.26,1.457-3.595,3.516c-0.022,0.148-0.236,0.387-0.345,0.38
	c-0.856-0.062-1.71-0.173-2.441-0.254c1.183-1.227,2.295-2.415,3.445-3.565c0.607-0.612,0.287-1.232-0.044-1.723
	c-0.175-0.264-0.797-0.43-1.146-0.342c-3.066,0.732-5.511,2.301-6.815,5.173c-1.629-0.09-3.268-0.183-4.908-0.274v1.622
	c1.71,0.117,3.417,0.234,5.146,0.351c0.104,1.636,1.196,2.793,2.434,3.751c0.94,0.728,2.114,1.141,3.149,1.751
	c0.527,0.311,1.043,0.38,1.341-0.129c0.306-0.521,0.863-1.137,0.088-1.785c-0.312-0.262-0.527-0.639-0.83-0.92
	c-0.941-0.877-1.901-1.737-3.02-2.75c1.098,0.105,2.002,0.235,2.91,0.268c0.829,0.028,1.561,0.028,1.423,1.204
	c-0.032,0.276,0.154,0.658,0.365,0.859c0.859,0.83,1.667,1.799,2.692,2.351c0.994,0.533,2.217,0.743,3.361,0.838
	c0.43,0.033,1.242-0.614,1.302-1.029c0.079-0.568-0.148-1.293-0.827-1.73c-0.759-0.493-1.42-1.142-2.123-1.72
	c0.966-1.251,0.979-1.248,1.861,0.069c0.173,0.259,0.41,0.494,0.669,0.67c2.081,1.446,4.167,1.566,6.425,0.258
	c0.66-0.384,0.835-0.702,0.866-1.348C180.524,53.679,180.088,53.366,179.466,53.141z"/>
<path fill-rule="evenodd" clip-rule="evenodd" d="M108.148,53.827c2.398,0.691,4.762,0.833,7.081-0.33
	c0.98-0.492,2.024-0.477,2.569-0.115c-1.289,1.329-3.28,2.143-3.289,4.523c0.026-0.024,0.059-0.011-0.003,0.024
	c0.002-0.011,0.003-0.018,0.003-0.024c-0.024,0.021-0.043,0.072,0.03,0.164c0.638,0.842,1.966,0.137,2.625-0.069
	c0.546-0.171,1.106-0.356,1.591-0.647c1.488-0.9,3.16-1.661,3.363-3.737c0.013-0.15,0.211-0.401,0.32-0.401
	c0.859,0.008,1.718,0.064,2.453,0.098c-1.102,1.3-2.136,2.556-3.211,3.777c-0.567,0.649-0.208,1.248,0.153,1.717
	c0.191,0.252,0.823,0.378,1.166,0.269c3.014-0.926,5.353-2.647,6.473-5.596c1.631-0.014,3.272-0.025,4.916-0.039l-0.103-1.62
	c-1.714-0.007-3.425-0.015-5.159-0.022c-0.208-1.627-1.371-2.711-2.667-3.589c-0.984-0.666-2.182-1.004-3.254-1.547
	c-0.545-0.276-1.064-0.313-1.329,0.214c-0.272,0.54-0.79,1.19,0.025,1.787c0.329,0.241,0.567,0.604,0.887,0.865
	c0.996,0.815,2.008,1.613,3.188,2.553c-1.102-0.035-2.013-0.107-2.921-0.083c-0.829,0.025-1.559,0.071-1.497-1.111
	c0.015-0.278-0.196-0.647-0.418-0.834c-0.911-0.774-1.778-1.69-2.837-2.175c-1.026-0.469-2.26-0.601-3.408-0.623
	c-0.431-0.005-1.201,0.691-1.234,1.11c-0.042,0.571,0.231,1.28,0.936,1.674c0.789,0.443,1.49,1.049,2.228,1.581
	c-0.883,1.31-0.898,1.307-1.861,0.05c-0.189-0.248-0.441-0.467-0.709-0.627c-2.169-1.311-4.258-1.298-6.429,0.15
	c-0.634,0.425-0.788,0.754-0.779,1.4C107.057,53.357,107.512,53.642,108.148,53.827z"/>
</svg>
