<?xml version="1.0" encoding="utf-8"?>
<!-- Generator: Adobe Illustrator 16.0.0, SVG Export Plug-In . SVG Version: 6.00 Build 0)  -->
<!DOCTYPE svg PUBLIC "-//W3C//DTD SVG 1.1//EN" "http://www.w3.org/Graphics/SVG/1.1/DTD/svg11.dtd">
<svg version="1.1" id="Layer_1" xmlns="http://www.w3.org/2000/svg" xmlns:xlink="http://www.w3.org/1999/xlink" x="0px" y="0px"
	 width="103.282px" height="68.163px" viewBox="0 0 103.282 68.163" enable-background="new 0 0 103.282 68.163"
	 xml:space="preserve">
<g>
	<path d="M22.109,45.53l0.101-2.707v-0.094c0-0.49,0.108-0.734,0.324-0.734c0.197,0,0.461,0.455,0.792,1.368
		c0.605,1.655,1.33,4.39,2.175,8.201l0.015,0.072l0.057-5.142v-4.364c0.058-0.244,0.219-0.367,0.483-0.367
		c0.264,0,0.396,0.192,0.396,0.576v0.087c-0.058,0.12-0.087,0.264-0.087,0.432l-0.093,5.451v4.508c0,0.148-0.041,0.295-0.123,0.439
		c-0.082,0.144-0.182,0.216-0.302,0.216c-0.207,0-0.61-1.012-1.21-3.035s-1.193-4.199-1.778-6.527v4.839
		c0,0.471,0.035,1.171,0.104,2.103c0.069,0.932,0.104,1.632,0.104,2.103c0,0.092-0.056,0.167-0.166,0.227
		c-0.11,0.061-0.251,0.091-0.421,0.091c-0.17,0-0.256-0.077-0.256-0.231l0.072-1.058c0-0.51-0.031-1.335-0.094-2.477
		c-0.062-1.144-0.094-1.842-0.094-2.097V45.53z"/>
	<path d="M32.111,47.855l-0.368-0.014c-0.144,0-0.245,0.036-0.302,0.108v4.551c0.504-0.029,0.778-0.044,0.821-0.044
		c0.562,0,0.843,0.13,0.843,0.39v0.05c-0.067,0.135-0.183,0.237-0.346,0.31c-0.164,0.072-0.307,0.112-0.432,0.122
		s-0.286,0.015-0.482,0.015h-0.461c-0.365,0-0.59-0.071-0.677-0.216c-0.039-0.067-0.058-0.156-0.058-0.267v-8.568
		c0-0.169-0.034-0.418-0.101-0.749c-0.067-0.332-0.101-0.584-0.101-0.757v-0.05c0.163-0.269,0.286-0.441,0.367-0.519l1.095-0.13
		c0.148,0,0.299,0.045,0.45,0.134s0.227,0.205,0.227,0.349c0,0.293-0.224,0.439-0.67,0.439l-0.425-0.014
		c-0.072,0-0.125,0.002-0.158,0.007l0.115,2.434c0,0.197-0.012,0.483-0.036,0.86s-0.036,0.651-0.036,0.824
		c0.053-0.009,0.125-0.025,0.216-0.05c0.202-0.053,0.359-0.079,0.472-0.079s0.213,0.04,0.302,0.122s0.133,0.18,0.133,0.295
		c0,0.116-0.036,0.219-0.108,0.311C32.319,47.811,32.226,47.855,32.111,47.855z"/>
	<path d="M39.311,53.084c-0.288,0-0.432-0.118-0.432-0.354c0-0.509-0.043-0.962-0.13-1.36c-0.086-0.398-0.179-0.796-0.277-1.192
		c-0.099-0.396-0.162-0.661-0.191-0.795c-0.024,0.101-0.065,0.326-0.123,0.677s-0.12,0.696-0.188,1.037
		c-0.067,0.346-0.144,0.696-0.23,1.051c-0.197,0.797-0.435,1.198-0.713,1.202c-0.096,0-0.186-0.031-0.27-0.093
		c-0.084-0.062-0.126-0.142-0.126-0.238c0-0.374,0.103-0.926,0.31-1.656c0.206-0.729,0.413-1.473,0.619-2.229s0.31-1.33,0.31-1.725
		c0-0.394-0.048-0.812-0.144-1.253c-0.105-0.45-0.216-0.849-0.331-1.194c-0.317-0.932-0.473-1.702-0.468-2.312v-0.036
		c0.091-0.202,0.208-0.303,0.35-0.303s0.262,0.084,0.36,0.252s0.186,0.395,0.263,0.681c0.076,0.285,0.141,0.554,0.194,0.807
		c0.052,0.252,0.104,0.529,0.155,0.831c0.05,0.303,0.083,0.485,0.097,0.547c0.02-0.048,0.082-0.388,0.188-1.022
		c0.264-1.541,0.542-2.312,0.835-2.312c0.11,0,0.211,0.029,0.302,0.087s0.137,0.172,0.137,0.343c0,0.17-0.183,0.962-0.551,2.376
		c-0.367,1.413-0.551,2.289-0.551,2.625c0,0.114,0.125,0.787,0.375,2.016c0.25,1.229,0.379,1.872,0.389,1.93v0.086
		c0.009,0.12,0.053,0.303,0.13,0.548c0.077,0.245,0.115,0.429,0.115,0.551s-0.041,0.225-0.123,0.307
		C39.511,53.043,39.417,53.084,39.311,53.084z"/>
	<path d="M45.482,44.695l-0.029,1.9l0.13,3.392l0.123,2.649c0,0.48-0.142,0.721-0.425,0.721c-0.164,0-0.284-0.077-0.36-0.23
		s-0.115-0.324-0.115-0.511l0.115-2.355c0-0.508-0.034-1.274-0.101-2.297c-0.067-1.022-0.101-1.788-0.101-2.297l0.021-1.289
		c0-0.706-0.045-1.164-0.136-1.375l-0.8,0.079c-0.125,0-0.236-0.037-0.334-0.111c-0.099-0.075-0.147-0.171-0.147-0.288
		c0-0.118,0.117-0.218,0.353-0.299c0.24-0.087,0.528-0.148,0.864-0.188c0.59-0.067,1.087-0.102,1.49-0.102
		c0.12,0,0.229,0.041,0.328,0.119c0.099,0.079,0.148,0.18,0.148,0.299c0,0.12-0.043,0.216-0.13,0.285
		c-0.086,0.069-0.192,0.104-0.317,0.104l-0.525-0.028c-0.067,0-0.118,0.003-0.151,0.007C45.449,43.446,45.482,44.052,45.482,44.695z
		"/>
</g>
<line fill="none" stroke="#231F20" stroke-width="5" stroke-linecap="round" stroke-miterlimit="10" x1="69.06" y1="34.762" x2="3.957" y2="34.762"/>
<path fill="none" stroke="#231F20" stroke-width="4" stroke-miterlimit="10" d="M0,35.66"/>
<path fill="none" stroke="#231F20" stroke-width="4" stroke-miterlimit="10" d="M63.125,35.66"/>
<polyline fill="none" stroke="#231F20" stroke-width="5" stroke-linecap="round" stroke-linejoin="round" stroke-miterlimit="10" points="
	69.06,2.5 100.782,34.222 68.779,65.663 "/>
</svg>
