<?xml version="1.0" encoding="utf-8"?>
<!-- Generator: Adobe Illustrator 16.0.0, SVG Export Plug-In . SVG Version: 6.00 Build 0)  -->
<!DOCTYPE svg PUBLIC "-//W3C//DTD SVG 1.1//EN" "http://www.w3.org/Graphics/SVG/1.1/DTD/svg11.dtd">
<svg version="1.1" id="Layer_1" xmlns="http://www.w3.org/2000/svg" xmlns:xlink="http://www.w3.org/1999/xlink" x="0px" y="0px"
	 width="32.841px" height="68.141px" viewBox="32.825 -1.003 32.841 68.141" enable-background="new 32.825 -1.003 32.841 68.141"
	 xml:space="preserve">
<path d="M34.308,16.895c-0.379,0-0.758-0.146-1.049-0.433c-0.572-0.572-0.572-1.517,0-2.095L48.202-0.575
	c0.575-0.572,1.52-0.572,2.095,0c0.574,0.578,0.574,1.523,0,2.095L35.354,16.462C35.067,16.75,34.688,16.895,34.308,16.895z"/>
<path d="M64.187,16.895c-0.379,0-0.759-0.146-1.049-0.433L48.202,1.52c-0.575-0.572-0.575-1.517,0-2.095
	c0.575-0.572,1.52-0.572,2.095,0l14.936,14.942c0.578,0.578,0.578,1.523,0,2.095C64.945,16.75,64.566,16.895,64.187,16.895z"/>
<path d="M49.248,67.138c-0.38,0-0.759-0.146-1.049-0.433L33.256,51.77c-0.575-0.572-0.575-1.518,0-2.096
	c0.575-0.572,1.52-0.572,2.095,0L50.293,64.61c0.572,0.577,0.572,1.522,0,2.095C50.006,66.992,49.627,67.138,49.248,67.138z"/>
<path d="M49.248,67.138c-0.38,0-0.759-0.146-1.049-0.433c-0.578-0.572-0.578-1.518,0-2.095l14.936-14.937
	c0.574-0.572,1.52-0.572,2.095,0c0.575,0.578,0.575,1.523,0,2.096L50.293,66.705C50.006,66.992,49.627,67.138,49.248,67.138z"/>
<path d="M58.137,33.063H40.358c-0.814,0-1.481-0.667-1.481-1.481c0-0.814,0.667-1.481,1.481-1.481h17.778
	c0.814,0,1.48,0.667,1.48,1.481C59.617,32.397,58.951,33.063,58.137,33.063z"/>
<text transform="matrix(1 0 0 1 13.689 81.0664)" display="none" enable-background="new    " font-family="'HelveticaNeue-Bold'" font-size="3.5556">Created by iconsmind.com</text>
</svg>
