<?xml version="1.0" encoding="utf-8"?>
<!-- Generator: Adobe Illustrator 16.0.0, SVG Export Plug-In . SVG Version: 6.00 Build 0)  -->
<!DOCTYPE svg PUBLIC "-//W3C//DTD SVG 1.1//EN" "http://www.w3.org/Graphics/SVG/1.1/DTD/svg11.dtd">
<svg version="1.1" id="Layer_1" xmlns="http://www.w3.org/2000/svg" xmlns:xlink="http://www.w3.org/1999/xlink" x="0px" y="0px"
	 width="100.439px" height="95.379px" viewBox="0 0 100.439 95.379" enable-background="new 0 0 100.439 95.379"
	 xml:space="preserve">
<g id="greek_2_">
	<path fill="#0D5EAF" d="M98.894,25.661l-1.43,7.978l-0.832,4.669c-0.628,1.801-1.37,3.602-2.231,5.404
		c-1.753,3.709-3.976,7.421-6.568,11.14c-0.97,1.4-1.997,2.8-3.076,4.2C83.259,61,81.674,62.968,80,64.926
		c-0.226,0.272-0.46,0.537-0.694,0.812c-3.203,3.709-6.668,7.42-10.309,11.139c-0.939,0.97-1.909,1.948-2.879,2.917
		c-2.387,2.389-4.825,4.768-7.303,7.157c-2.897,2.799-5.844,5.598-8.78,8.399h-0.059c-0.01-0.011-0.019-0.021-0.029-0.031V19.64
		c0.019,0.039,0.039,0.069,0.058,0.108c0.402-0.753,0.794-1.478,1.196-2.183c1.077-1.89,2.173-3.603,3.318-5.14
		C59.405,5.828,65.15,2.519,74.362,2.5c8.32-0.02,15.683,3.916,20.117,9.926c1.174,1.576,2.143,3.309,2.868,5.14l0.939,4.943
		L98.894,25.661z"/>
	<path display="none" fill="#B22F2F" d="M98.894,25.661c0,2.809-0.353,5.628-1.028,8.438c-0.333,1.4-0.755,2.8-1.233,4.21
		c-2.398,6.911-6.569,13.823-11.876,20.744c-1.702,2.222-3.523,4.453-5.45,6.687c-4.044,4.678-8.499,9.367-13.188,14.056
		c-5.177,5.179-10.629,10.367-16.082,15.557l-0.03,0.028c-0.009-0.011-0.019-0.021-0.027-0.028
		c-0.012-0.011-0.021-0.021-0.031-0.031V19.64c0.019,0.039,0.039,0.069,0.058,0.108c0.402-0.753,0.794-1.478,1.196-2.183
		C56.907,7.551,62.996,2.529,74.362,2.5c10.514-0.02,19.49,6.255,22.985,15.066C98.335,20.09,98.884,22.812,98.894,25.661z"/>
	<path fill="#FFFFFF" d="M98.286,22.509H49.948V19.64c0.019,0.039,0.039,0.069,0.058,0.108c0.402-0.753,0.794-1.478,1.196-2.183
		c1.077-1.89,2.173-3.603,3.318-5.14h39.96c1.174,1.576,2.143,3.309,2.868,5.14L98.286,22.509z"/>
	<path fill="#FFFFFF" d="M97.464,33.639l-0.832,4.669c-0.628,1.801-1.37,3.602-2.231,5.404H49.948V33.639H97.464z"/>
	<path fill="#FFFFFF" d="M87.832,54.852c-0.97,1.4-1.997,2.8-3.076,4.2C83.259,61,81.674,62.968,80,64.926H49.948V54.852H87.832z"/>
	<path fill="#FFFFFF" d="M68.997,76.877c-0.939,0.97-1.909,1.948-2.879,2.917c-2.387,2.389-4.825,4.768-7.303,7.157h-8.868V76.877
		H68.997z"/>
</g>
<g id="slo">
	<path fill="#ED1C24" d="M49.948,19.748V95.32c-0.01,0.011-0.02,0.021-0.029,0.031c-10.388-9.868-20.773-19.745-29.271-29.612
		c-9.094-10.555-16.044-21.097-18.56-31.64C1.412,31.29,1.06,28.47,1.06,25.661C1.08,16.478,6.728,8.559,14.903,4.79h0.009
		c0.88-0.401,1.781-0.754,2.711-1.057c0.313-0.098,0.627-0.196,0.939-0.284h0.011c1.076-0.303,2.192-0.538,3.337-0.695
		c0.383-0.059,0.764-0.098,1.146-0.137C23.888,2.539,24.731,2.5,25.592,2.5c1.116,0,2.192,0.049,3.21,0.157
		c0.313,0.029,0.627,0.068,0.93,0.107c0.616,0.079,1.204,0.176,1.782,0.293c0.783,0.157,1.547,0.353,2.271,0.578
		c7.058,2.183,11.619,7.528,16.132,16.054C49.927,19.709,49.938,19.729,49.948,19.748z"/>
	<path fill="#005DA4" d="M49.948,19.748v45.991h-29.3c-9.094-10.555-16.044-21.097-18.56-31.64C1.412,31.29,1.06,28.47,1.06,25.661
		C1.08,15.167,8.461,6.308,18.563,3.449c0,0,0,0.01,0.011,0c1.076-0.303,2.192-0.538,3.337-0.695
		c0.383-0.059,0.764-0.098,1.146-0.137C23.888,2.539,24.731,2.5,25.592,2.5c1.116,0,2.192,0.049,3.21,0.157
		c0.313,0.029,0.627,0.068,0.93,0.107c0.616,0.079,1.204,0.176,1.782,0.293c8.39,1.684,13.421,7.225,18.404,16.632
		C49.927,19.709,49.938,19.729,49.948,19.748z"/>
	<path fill="#FFFFFF" stroke="#FFFFFF" stroke-miterlimit="10" d="M49.948,19.748v14.351H2.088C1.412,31.29,1.06,28.47,1.06,25.661
		C1.08,15.167,8.461,6.308,18.563,3.449c0,0,0,0.01,0.011,0c1.076-0.303,2.192-0.538,3.337-0.695
		c0.383-0.059,0.764-0.098,1.146-0.137C23.888,2.539,24.731,2.5,25.592,2.5c1.116,0,2.192,0.049,3.21,0.157
		c0.313,0.029,0.627,0.068,0.93,0.107c0.616,0.079,1.204,0.176,1.782,0.293c8.39,1.684,13.421,7.225,18.404,16.632
		C49.927,19.709,49.938,19.729,49.948,19.748z"/>
	<path fill="#005DA4" d="M34.308,28.473l0.997-14.711c-7.772-3.683-16.789-3.683-24.561,0l0.997,14.711
		c0.448,6.61,4.941,12.253,11.284,14.167C29.366,40.726,33.861,35.083,34.308,28.473L34.308,28.473z"/>
	<path fill="#FFFFFF" d="M13.815,30.466c1.067,4.805,4.556,8.711,9.21,10.312c4.653-1.601,8.142-5.507,9.21-10.312l-4.606-6.141
		l-1.842,2.457l-2.762-5.526l-2.764,5.526l-1.841-2.457L13.815,30.466L13.815,30.466z"/>
	<g id="wave_3_" transform="scale(5) translate(0 5.1962)">
		<path fill="#005DA4" d="M2.845,1.204c0.17,0.293,0.545,0.394,0.839,0.225l0,0c0.19-0.11,0.424-0.11,0.614,0
			c0.19,0.11,0.424,0.11,0.614,0c0.19-0.11,0.424-0.11,0.614,0c0.294,0.17,0.669,0.069,0.839-0.225l0,0v0.177
			C6.195,1.675,5.82,1.776,5.526,1.606l0,0c-0.19-0.11-0.424-0.11-0.614,0c-0.19,0.11-0.424,0.11-0.614,0
			c-0.19-0.11-0.424-0.11-0.614,0C3.39,1.776,3.015,1.675,2.845,1.381l0,0V1.204z"/>
	</g>
	<g transform="translate(0 17.321)">
		<g id="wave_2_" transform="scale(5) translate(0 5.1962)">
			<path fill="#005DA4" d="M2.845-1.467c0.17,0.294,0.545,0.394,0.839,0.225l0,0c0.19-0.109,0.424-0.109,0.614,0
				c0.19,0.11,0.424,0.11,0.614,0c0.19-0.109,0.424-0.109,0.614,0c0.294,0.17,0.669,0.069,0.839-0.225l0,0v0.177
				C6.195-0.996,5.82-0.895,5.526-1.065l0,0c-0.19-0.109-0.424-0.109-0.614,0c-0.19,0.11-0.424,0.11-0.614,0
				c-0.19-0.109-0.424-0.109-0.614,0C3.39-0.895,3.015-0.996,2.845-1.29l0,0V-1.467z"/>
		</g>
	</g>
	<g id="s_5_" transform="translate(0,-120) scale(2.25)">
		<path fill="#FFDD00" d="M10.233,60.904l0.102,0.334l0.341-0.079l-0.238,0.256l0.238,0.256l-0.341-0.079l-0.102,0.334l-0.102-0.334
			L9.79,61.672l0.239-0.256L9.79,61.16l0.341,0.079L10.233,60.904z"/>
	</g>
	<g transform="translate(-33.75,-45)">
		<g id="s_4_" transform="translate(0,-120) scale(2.25)">
			<path fill="#FFDD00" d="M23.104,79.37l0.103,0.335l0.34-0.079l-0.238,0.256l0.238,0.257l-0.34-0.079l-0.103,0.335l-0.102-0.335
				l-0.341,0.079l0.239-0.257l-0.239-0.256l0.341,0.079L23.104,79.37z"/>
		</g>
	</g>
	<g transform="translate(33.75,-45)">
		<g id="s_3_" transform="translate(0,-120) scale(2.25)">
			<path fill="#FFDD00" d="M-2.637,79.37l0.102,0.335l0.341-0.079l-0.238,0.256l0.238,0.257l-0.341-0.079l-0.102,0.335l-0.102-0.335
				l-0.341,0.079l0.238-0.257l-0.238-0.256l0.341,0.079L-2.637,79.37z"/>
		</g>
	</g>
	<path fill="#ED1C24" d="M11.606,13.371l1.02,15.042c0.416,6.144,4.536,11.413,10.399,13.299c5.861-1.886,9.982-7.155,10.399-13.299
		l1.019-15.042c0.285,0.136,0.572,0.266,0.861,0.391l-0.997,14.711c-0.447,6.61-4.941,12.252-11.283,14.167
		c-6.343-1.916-10.836-7.558-11.284-14.167l-0.997-14.711C11.033,13.637,11.321,13.507,11.606,13.371L11.606,13.371z"/>
</g>
<path fill="#FFFFFF" d="M98.894,25.661l-0.607-3.152l-0.006-0.028h-1.894v-6.989c-0.557-1.07-1.188-2.1-1.907-3.065h-0.001
	c-2.356-3.193-5.544-5.792-9.258-7.532V22.48H64.878v11.166h20.343v21.128h2.663c2.569-3.692,4.776-7.378,6.517-11.062
	c0.759-1.587,1.41-3.174,1.986-4.761v-5.306h1.076l0.001-0.007L98.894,25.661z"/>
<rect x="64.684" y="33.544" fill="#005DA4" width="20.558" height="20.558"/>
<path fill="#005DA4" d="M85.169,4.87C81.906,3.35,78.24,2.49,74.362,2.5c-3.774,0.008-6.96,0.578-9.749,1.69v18.057h20.557V4.87z"/>
<path fill="#005DA4" d="M97.348,17.565c-0.271-0.682-0.585-1.345-0.921-1.996v6.921h1.855L97.348,17.565z"/>
<path fill="#005DA4" d="M96.468,33.585v5.153c0.052-0.144,0.114-0.287,0.164-0.43l0.832-4.669l0.01-0.054H96.468z"/>
</svg>
