<?xml version="1.0" encoding="utf-8"?>
<!-- Generator: Adobe Illustrator 16.0.0, SVG Export Plug-In . SVG Version: 6.00 Build 0)  -->
<!DOCTYPE svg PUBLIC "-//W3C//DTD SVG 1.1//EN" "http://www.w3.org/Graphics/SVG/1.1/DTD/svg11.dtd">
<svg version="1.1" xmlns="http://www.w3.org/2000/svg" xmlns:xlink="http://www.w3.org/1999/xlink" x="0px" y="0px"
	 width="100.44px" height="95.38px" viewBox="0.56 2.06 100.44 95.38" enable-background="new 0.56 2.06 100.44 95.38"
	 xml:space="preserve">
<g id="greek">
	<path fill="#0D5EAF" d="M101,26.22l-1.46,8.15l-0.85,4.77c-0.641,1.84-1.4,3.68-2.28,5.52c-1.79,3.79-4.061,7.58-6.71,11.38
		c-0.99,1.43-2.04,2.86-3.141,4.29c-1.529,1.99-3.149,4-4.859,6c-0.23,0.28-0.47,0.55-0.71,0.83c-3.271,3.79-6.811,7.58-10.53,11.38
		c-0.96,0.99-1.95,1.99-2.94,2.979c-2.439,2.44-4.93,4.87-7.46,7.311c-2.96,2.86-5.97,5.72-8.97,8.58h-0.06
		C51.02,97.4,51.01,97.39,51,97.38V20.07c0.02,0.04,0.04,0.07,0.06,0.11c0.41-0.77,0.811-1.51,1.221-2.23
		c1.1-1.93,2.22-3.68,3.39-5.25C60.66,5.96,66.53,2.58,75.94,2.56c8.5-0.02,16.02,4,20.55,10.14c1.2,1.61,2.189,3.38,2.93,5.25
		l0.96,5.05L101,26.22z"/>
	<path display="none" fill="#B22F2F" d="M101,26.22c0,2.87-0.36,5.75-1.05,8.62c-0.34,1.43-0.771,2.86-1.26,4.3
		c-2.45,7.06-6.71,14.12-12.131,21.19c-1.739,2.27-3.6,4.55-5.569,6.83c-4.13,4.78-8.681,9.57-13.471,14.359
		C62.23,86.81,56.66,92.11,51.09,97.41l-0.03,0.03c-0.01-0.011-0.02-0.021-0.029-0.03C51.02,97.4,51.01,97.39,51,97.38V20.07
		c0.02,0.04,0.04,0.07,0.06,0.11c0.41-0.77,0.811-1.51,1.221-2.23C58.11,7.72,64.33,2.59,75.94,2.56
		C86.68,2.54,95.85,8.95,99.42,17.95C100.43,20.53,100.99,23.31,101,26.22z"/>
	<path fill="#FFFFFF" d="M100.38,23H51v-2.93c0.02,0.04,0.04,0.07,0.06,0.11c0.41-0.77,0.811-1.51,1.221-2.23
		c1.1-1.93,2.22-3.68,3.39-5.25h40.82c1.2,1.61,2.189,3.38,2.93,5.25L100.38,23z"/>
	<path fill="#FFFFFF" d="M99.54,34.37l-0.85,4.77c-0.641,1.84-1.4,3.68-2.28,5.52H51V34.37H99.54z"/>
	<path fill="#FFFFFF" d="M89.7,56.04c-0.99,1.43-2.04,2.86-3.141,4.29c-1.529,1.99-3.149,4-4.859,6H51V56.04H89.7z"/>
	<path fill="#FFFFFF" d="M70.46,78.54c-0.96,0.99-1.95,1.99-2.94,2.979c-2.439,2.44-4.93,4.87-7.46,7.311H51V78.54H70.46z"/>
</g>
<g id="slo">
	<path fill="#ED1C24" d="M51,20.18v77.2c-0.01,0.01-0.02,0.021-0.029,0.03C40.36,87.33,29.75,77.24,21.07,67.16
		C11.78,56.38,4.68,45.61,2.11,34.84c-0.69-2.87-1.05-5.75-1.05-8.62C1.08,16.84,6.85,8.75,15.2,4.9h0.01
		c0.9-0.41,1.82-0.77,2.77-1.08c0.32-0.1,0.64-0.2,0.96-0.29h0.01c1.1-0.31,2.24-0.55,3.41-0.71c0.39-0.06,0.78-0.1,1.17-0.14
		c0.85-0.08,1.71-0.12,2.59-0.12c1.14,0,2.24,0.05,3.28,0.16c0.32,0.03,0.64,0.07,0.95,0.11c0.63,0.08,1.23,0.18,1.82,0.3
		c0.8,0.16,1.58,0.36,2.32,0.59c7.21,2.23,11.87,7.69,16.48,16.4C50.98,20.14,50.99,20.16,51,20.18z"/>
	<path fill="#005DA4" d="M51,20.18v46.98H21.07C11.78,56.38,4.68,45.61,2.11,34.84c-0.69-2.87-1.05-5.75-1.05-8.62
		C1.08,15.5,8.62,6.45,18.94,3.53c0,0,0,0.01,0.01,0c1.1-0.31,2.24-0.55,3.41-0.71c0.39-0.06,0.78-0.1,1.17-0.14
		c0.85-0.08,1.71-0.12,2.59-0.12c1.14,0,2.24,0.05,3.28,0.16c0.32,0.03,0.64,0.07,0.95,0.11c0.63,0.08,1.23,0.18,1.82,0.3
		c8.57,1.72,13.71,7.38,18.801,16.99C50.98,20.14,50.99,20.16,51,20.18z"/>
	<path fill="#FFFFFF" stroke="#FFFFFF" stroke-miterlimit="10" d="M51,20.18v14.66H2.11c-0.69-2.87-1.05-5.75-1.05-8.62
		C1.08,15.5,8.62,6.45,18.94,3.53c0,0,0,0.01,0.01,0c1.1-0.31,2.24-0.55,3.41-0.71c0.39-0.06,0.78-0.1,1.17-0.14
		c0.85-0.08,1.71-0.12,2.59-0.12c1.14,0,2.24,0.05,3.28,0.16c0.32,0.03,0.64,0.07,0.95,0.11c0.63,0.08,1.23,0.18,1.82,0.3
		c8.57,1.72,13.71,7.38,18.801,16.99C50.98,20.14,50.99,20.16,51,20.18z"/>
	<g transform="translate(2.2238 1) scale(.12937)">
		<path fill="#005DA4" d="M253.534,217.147l7.873-116.158c-61.37-29.085-132.565-29.085-193.935,0l7.873,116.158
			c3.536,52.195,39.015,96.754,89.1,111.87C214.519,313.901,250.001,269.342,253.534,217.147L253.534,217.147z"/>
		<path fill="#FFFFFF" d="M91.714,232.886c8.432,37.939,35.977,68.783,72.731,81.423c36.743-12.64,64.291-43.484,72.723-81.423
			l-36.369-48.489l-14.542,19.4l-21.812-43.635l-21.823,43.635l-14.539-19.4L91.714,232.886L91.714,232.886z"/>
		<g id="wave_3_" transform="scale(5) translate(0 5.1962)">
			<path fill="#005DA4" d="M18.992,43.806c1.34,2.318,4.304,3.115,6.625,1.774l0,0c1.499-0.866,3.348-0.866,4.848,0
				c1.498,0.867,3.347,0.867,4.848,0c1.5-0.866,3.348-0.866,4.848,0c2.319,1.341,5.285,0.544,6.623-1.774l0,0v1.399
				c-1.338,2.32-4.304,3.115-6.623,1.775l0,0c-1.5-0.867-3.348-0.867-4.848,0c-1.501,0.866-3.349,0.866-4.848,0
				c-1.501-0.867-3.349-0.867-4.848,0c-2.32,1.339-5.285,0.545-6.625-1.775l0,0V43.806z"/>
		</g>
		<g transform="translate(0 17.321)">
			<g id="wave_2_" transform="scale(5) translate(0 5.1962)">
				<path fill="#005DA4" d="M18.992,46.605c1.34,2.318,4.304,3.113,6.625,1.774l0,0c1.499-0.865,3.348-0.865,4.848,0
					c1.498,0.866,3.347,0.866,4.848,0c1.5-0.865,3.348-0.865,4.848,0c2.319,1.339,5.285,0.544,6.623-1.774l0,0v1.4
					c-1.338,2.318-4.304,3.115-6.623,1.773l0,0c-1.5-0.865-3.348-0.865-4.848,0c-1.501,0.868-3.349,0.868-4.848,0
					c-1.501-0.865-3.349-0.865-4.848,0c-2.32,1.341-5.285,0.545-6.625-1.773l0,0V46.605z"/>
			</g>
		</g>
		<g id="s_5_" transform="translate(0,-120) scale(2.25)">
			<path fill="#FFDD00" d="M73.087,109.703l0.805,2.64l2.691-0.621l-1.88,2.023l1.88,2.018l-2.691-0.621l-0.805,2.64l-0.809-2.64
				l-2.692,0.621l1.885-2.018l-1.885-2.023l2.692,0.621L73.087,109.703z"/>
		</g>
		<g transform="translate(-33.75,-45)">
			<g id="s_4_" transform="translate(0,-120) scale(2.25)">
				<path fill="#FFDD00" d="M60.964,93.539l0.81,2.645l2.689-0.624l-1.882,2.02l1.882,2.025l-2.689-0.621l-0.81,2.642l-0.807-2.642
					l-2.692,0.621l1.885-2.025l-1.885-2.02l2.692,0.624L60.964,93.539z"/>
			</g>
		</g>
		<g transform="translate(33.75,-45)">
			<g id="s_3_" transform="translate(0,-120) scale(2.25)">
				<path fill="#FFDD00" d="M85.206,93.539l0.807,2.645l2.692-0.624l-1.884,2.02l1.884,2.025l-2.692-0.621l-0.807,2.642l-0.81-2.642
					l-2.689,0.621l1.882-2.025l-1.882-2.02l2.689,0.624L85.206,93.539z"/>
			</g>
		</g>
		<path fill="#ED1C24" d="M74.28,97.902l8.051,118.777c3.284,48.511,35.822,90.115,82.114,105.009
			c46.284-14.893,78.823-56.497,82.114-105.009l8.047-118.777c2.25,1.072,4.514,2.102,6.801,3.087l-7.873,116.158
			c-3.533,52.195-39.015,96.747-89.089,111.87c-50.085-15.124-85.563-59.675-89.1-111.87l-7.873-116.158
			C69.755,100.004,72.027,98.973,74.28,97.902L74.28,97.902z"/>
	</g>
</g>
</svg>
