<?xml version="1.0" encoding="utf-8"?>
<!-- Generator: Adobe Illustrator 16.0.0, SVG Export Plug-In . SVG Version: 6.00 Build 0)  -->
<!DOCTYPE svg PUBLIC "-//W3C//DTD SVG 1.1//EN" "http://www.w3.org/Graphics/SVG/1.1/DTD/svg11.dtd">
<svg version="1.1" id="Layer_1" xmlns="http://www.w3.org/2000/svg" xmlns:xlink="http://www.w3.org/1999/xlink" x="0px" y="0px"
	 width="99.04px" height="69.491px" viewBox="0.48 1.58 99.04 69.491" enable-background="new 0.48 1.58 99.04 69.491"
	 xml:space="preserve">
<g id="bike">
	<path fill="#4C848D" d="M84.95,42.431c-2.76,0-5.33,0.789-7.5,2.17c-0.029,0.02-0.05,0.029-0.08,0.049l-0.16-0.369l-3.969-8.9
		l-0.49-1.109h4.819c1.72,0,3.13,1.4,3.13,3.129c0,1.73-1.41,3.131-3.13,3.131v1.57c2.591,0,4.688-2.109,4.688-4.701
		c0-2.589-2.1-4.699-4.688-4.699h-7.239l0.029,0.08l0.029,0.05L72,34.27H71.03l0.649,1.45H49.85l-1.27-2.85l2.09-0.29
		c0.57,0,1.029-0.45,1.029-1.02c0-0.56-0.459-1.02-1.029-1.02c0,0-7.99-1.1-8.18-1.1c-1.18,0-2.13,0.95-2.13,2.12
		s0.95,2.13,2.13,2.13c0.19,0,0.37-0.03,0.55-0.08l3.92-0.53l1.18,2.64H24.46l-0.53-1.18l-0.07-0.16l2.07-0.28
		c0.56,0,1.02-0.46,1.02-1.03c0-0.56-0.46-1.02-1.02-1.02c0,0-8-1.1-8.19-1.1c-1.17,0-2.13,0.95-2.13,2.12
		c0,1.18,0.96,2.13,2.13,2.13c0.19,0,4.5-0.61,4.5-0.61l0.07,0.15l0.78,1.759l-3.04,6.852c-1.56-0.602-3.24-0.92-5-0.92
		c-7.76,0-14.07,6.311-14.07,14.068c0,7.75,6.31,14.061,14.07,14.061c6.55,0,12.07-4.488,13.63-10.561
		c0.05-0.219,0.1-0.439,0.15-0.66c0,0.229,0.02,0.451,0.05,0.66c0.38,2.521,2.56,4.461,5.18,4.461c2.63,0,4.8-1.939,5.18-4.461
		H56.79c0.34,1.149,1.41,2,2.67,2c0.121,0,0.24-0.021,0.36-0.029c0.271-0.029,0.529-0.109,0.761-0.221
		c0.25-0.109,0.469-0.25,0.67-0.42c0.601-0.511,0.979-1.271,0.979-2.109c0-0.58-0.181-1.119-0.479-1.568L74.5,42.05l1.318,2.98
		l0.25,0.559c-0.13,0.111-0.261,0.221-0.391,0.342c-2.938,2.568-4.801,6.35-4.801,10.568c0,7.75,6.312,14.069,14.07,14.069
		c7.758,0,14.07-6.319,14.07-14.069C99.02,48.74,92.709,42.431,84.95,42.431z M27.29,59.041c-0.01,0.061-0.02,0.119-0.04,0.18
		c-0.06,0.262-0.12,0.521-0.2,0.779c-1.52,5.201-6.32,9-12,9c-6.89,0-12.5-5.609-12.5-12.5c0-6.898,5.61-12.5,12.5-12.5
		c1.53,0,3,0.271,4.36,0.781l-4.1,9.209c-0.09-0.011-0.17-0.011-0.26-0.011c-1.34,0-2.44,1.051-2.51,2.381
		c-0.01,0.039-0.01,0.091-0.01,0.14c0,0.149,0.01,0.291,0.04,0.432c0.1,0.568,0.39,1.068,0.79,1.43c0.2,0.182,0.42,0.33,0.67,0.439
		c0.23,0.102,0.49,0.17,0.76,0.199c0.09,0.01,0.17,0.021,0.26,0.021c0.99,0,1.85-0.58,2.26-1.41c0.01-0.021,0.02-0.051,0.03-0.068
		l9.96,1.49C27.29,59.031,27.29,59.031,27.29,59.041z M27.51,57.47l-10-1.488c-0.06-0.312-0.18-0.602-0.35-0.859
		c-0.12-0.182-0.26-0.34-0.42-0.49l4.1-9.211c2.83,1.49,5.03,4.031,6.06,7.101c0.17,0.49,0.31,1,0.41,1.521
		c0.16,0.791,0.24,1.621,0.24,2.461C27.55,56.819,27.54,57.149,27.51,57.47z M29.07,57.63c0.03-0.381,0.05-0.75,0.05-1.131
		c0-0.99-0.1-1.949-0.3-2.869c-0.1-0.521-0.24-1.021-0.4-1.51c-1.16-3.541-3.68-6.451-6.94-8.142l2.47-5.549l5.92,13.288l0.65,1.451
		l0.72,1.64C30.23,55.46,29.45,56.46,29.07,57.63z M25.16,37.291h21.63c1.73,0,3.13,1.399,3.13,3.129c0,1.73-1.41,3.131-3.13,3.131
		v1.57c1.91,0,3.56-1.15,4.291-2.791l1.489,3.33L31.4,51.319L25.16,37.291z M56.79,58.44H39.24c-0.37-2.521-2.55-4.461-5.18-4.461
		c-0.48,0-0.94,0.062-1.39,0.188l-0.62-1.399l21.16-5.66l4.451,9.99C57.25,57.451,56.95,57.91,56.79,58.44z M60.53,56.66
		c-0.33-0.142-0.689-0.22-1.07-0.22c-0.129,0-0.25,0.011-0.369,0.021l-4.35-9.76l17.809-4.761L60.53,56.66z M54.1,45.25
		l-3.551-7.959h21.83l1.229,2.75L54.1,45.25z M84.95,69c-6.891,0-12.5-5.609-12.5-12.5c0-3.76,1.66-7.129,4.291-9.42l0.579,1.319
		c1.699,3.812,3.729,6.091,5.22,7.371C82.47,56,82.43,56.25,82.43,56.5c0,1.381,1.13,2.51,2.521,2.51c1.389,0,2.52-1.129,2.52-2.51
		c0-1.39-1.131-2.521-2.52-2.521c-0.562,0-1.08,0.181-1.5,0.5c-1.33-1.181-3.16-3.271-4.701-6.722l-0.729-1.659
		C80,44.771,82.39,44,84.95,44c6.899,0,12.5,5.602,12.5,12.5C97.45,63.39,91.85,69,84.95,69z"/>
	<path fill="#433235" d="M26.95,33.07c0,0.57-0.46,1.03-1.02,1.03l-2.07,0.28l0.07,0.16l-1.62,0.2l-0.07-0.15
		c0,0-4.31,0.61-4.5,0.61c-1.17,0-2.13-0.95-2.13-2.13c0-1.17,0.96-2.12,2.13-2.12c0.19,0,8.19,1.1,8.19,1.1
		C26.49,32.05,26.95,32.51,26.95,33.07z"/>
	<path fill="#433235" d="M51.7,31.56c0,0.57-0.459,1.03-1.021,1.03l-2.07,0.28l0.07,0.16l-1.619,0.2l-0.07-0.15
		c0,0-4.31,0.61-4.5,0.61c-1.17,0-2.13-0.95-2.13-2.13c0-1.17,0.96-2.12,2.13-2.12c0.19,0,8.189,1.1,8.189,1.1
		C51.241,30.54,51.7,31,51.7,31.56z"/>
	<path fill="#433235" d="M82.26,37.399c0,2.591-2.1,4.701-4.689,4.701v-1.569c1.721,0,3.131-1.4,3.131-3.132
		c0-1.729-1.41-3.129-3.131-3.129H72l-1.61-1.44l-0.029-0.02l-0.03-0.03h0.03l0.779-0.08h6.431
		C80.161,32.7,82.26,34.81,82.26,37.399z"/>
	<polygon fill="#433235" points="72,34.27 71.03,34.27 70.39,32.83 	"/>
	<polygon fill="#433235" points="72,32.78 72,34.27 70.39,32.83 70.36,32.81 70.36,32.78 	"/>
	
		<rect x="75.698" y="44.311" transform="matrix(0.4224 0.9064 -0.9064 0.4224 85.1756 -43.5013)" fill="#4C848D" width="2.048" height="1.547"/>
	<path fill="none" stroke="#000000" stroke-miterlimit="10" d="M21.52,43.88c4.56,2.34,7.69,7.09,7.69,12.57
		c0,0.299-0.01,0.59-0.03,0.879v0.01"/>
	<path fill="none" stroke="#000000" stroke-miterlimit="10" d="M77.32,44.55c2.188-1.4,4.79-2.211,7.58-2.211
		c7.33,0,13.351,5.58,14.05,12.721c0.051,0.461,0.07,0.92,0.07,1.391c0,0.49-0.02,0.971-0.068,1.439
		c-0.031,0.238-0.062,0.479-0.091,0.709c-0.04,0.23-0.08,0.471-0.13,0.699C97.6,64.81,93.26,69.149,87.75,70.281
		c-0.23,0.049-0.472,0.09-0.701,0.129c-0.229,0.03-0.469,0.061-0.709,0.09c-0.471,0.051-0.95,0.069-1.439,0.069
		c-0.471,0-0.931-0.021-1.391-0.069C76.37,69.8,70.79,63.781,70.79,56.451c0-4.433,2.041-8.382,5.229-10.972"/>
	<path fill="none" stroke="#000000" stroke-miterlimit="10" d="M28.84,59.66c0,0.01,0,0.01,0,0.021
		c-1.38,5.879-6.42,10.34-12.58,10.828c-0.2,0.021-0.4,0.031-0.6,0.041c-0.19,0.021-0.37,0.021-0.56,0.021c-0.5,0-1-0.03-1.49-0.079
		c-0.24-0.021-0.47-0.052-0.7-0.091c-0.23-0.041-0.46-0.08-0.69-0.131c-0.17-0.028-0.34-0.069-0.51-0.108
		c-0.19-0.052-0.38-0.103-0.57-0.15c-0.15-0.051-0.3-0.09-0.44-0.141c-0.16-0.05-0.32-0.109-0.48-0.17c-0.2-0.07-0.4-0.15-0.6-0.24
		c-0.17-0.068-0.34-0.139-0.51-0.219c-0.18-0.08-0.36-0.17-0.53-0.261C8.3,68.839,8.03,68.68,7.76,68.52
		c-0.38-0.239-0.75-0.489-1.11-0.75c0-0.011-0.01-0.011-0.02-0.011c-0.35-0.27-0.69-0.561-1.02-0.85
		c-0.01-0.011-0.01-0.02-0.02-0.011c-0.27-0.25-0.53-0.51-0.79-0.778c-0.25-0.271-0.49-0.541-0.72-0.83
		c-0.46-0.57-0.87-1.181-1.24-1.82c-0.18-0.32-0.35-0.65-0.51-0.979C2.25,62.31,2.17,62.14,2.09,61.97
		c-0.35-0.85-0.63-1.75-0.82-2.67c-0.05-0.229-0.09-0.471-0.13-0.699c-0.03-0.229-0.06-0.471-0.09-0.711
		C1,57.419,0.98,56.94,0.98,56.451c0-0.472,0.02-0.933,0.07-1.392c0.02-0.24,0.05-0.472,0.09-0.699
		c1.01-6.8,6.87-12.021,13.96-12.021c1.76,0,3.44,0.32,4.99,0.92"/>
	<path d="M76.07,45.589c-0.13,0.111-0.261,0.221-0.391,0.342l-0.38-0.512l0.521-0.389L76.07,45.589z"/>
	<path fill="#433235" d="M51.542,40.386c0,2.59-2.101,4.699-4.689,4.699v-1.568c1.72,0,3.13-1.4,3.13-3.131
		c0-1.729-1.41-3.131-3.13-3.131h-5.07v-1.568h5.07C49.441,35.687,51.542,37.796,51.542,40.386z"/>
</g>
<g id="Layer_2">
	<g id="denny">
		<circle id="head" fill="#DDAEA6" cx="65.413" cy="8.083" r="6.083"/>
		<g id="hair">
			<path fill="#5B4036" stroke="#5B4036" stroke-width="0.5" stroke-miterlimit="10" d="M70.672,4.944l-8.889-1.868l-2.018,6.436
				c-0.225-0.604-0.354-1.265-0.354-1.944c0-3.171,2.662-5.738,5.951-5.738C67.676,1.83,69.674,3.095,70.672,4.944z"/>
			<path fill="#5B4036" d="M71.48,7.59L71.31,6.4C71.411,6.78,71.47,7.18,71.48,7.59z"/>
			<path fill="#5B4036" d="M71.53,7.9L71.5,7.89c0-0.1,0-0.2-0.021-0.3L71.53,7.9z"/>
			<path fill="#5B4036" d="M71.734,7.89L68.93,7.35l-2.915-2.27l-1.829,2.98l-0.945-1.49l-1.412,1.49v2.19H59.85
				c-0.041-0.09-0.081-0.18-0.111-0.28l2.094-6.82l9.225,1.98c0.203,0.4,0.376,0.82,0.486,1.27l0.174,1.19
				C71.734,7.69,71.734,7.79,71.734,7.89z"/>
		</g>
		<path id="calve" display="none" fill="#504E53" d="M55.741,53.896c-1.012,1.779-3.13,2.486-4.729,1.578l0,0
			c-1.602-0.91-2.079-3.092-1.065-4.871l8.243-14.506c1.014-1.783,3.129-2.488,4.729-1.578l0,0c1.602,0.908,2.078,3.089,1.064,4.871
			L55.741,53.896z"/>
		<path id="thigh" display="none" fill="#504E53" d="M62.161,33.971c1.938,1.374,2.438,3.993,1.12,5.846l0,0
			c-1.315,1.854-3.954,2.242-5.891,0.867L45.644,32.34c-1.937-1.376-2.438-3.994-1.121-5.848l0,0
			c1.315-1.854,3.954-2.242,5.89-0.866L62.161,33.971z"/>
		<path id="shoe" display="none" d="M58.008,57.115c-0.438,0.909-1.531,1.293-2.441,0.854l-6.19-2.98
			c-0.91-0.438-1.293-1.531-0.854-2.441l0,0c0.438-0.909,1.532-1.293,2.442-0.854l6.188,2.98
			C58.064,55.112,58.447,56.205,58.008,57.115L58.008,57.115z"/>
		<path id="back" stroke="#000000" stroke-miterlimit="10" d="M60.73,20.33l-7.021,8.14l-9.682,1.57c-0.6-1.46-0.37-3.18,0.73-4.45
			l9.411-10.92c0.859-0.99,2.062-1.5,3.281-1.5c1,0,2.01,0.35,2.828,1.05C62.09,15.78,62.299,18.52,60.73,20.33z"/>
		<g id="arm">
			<path fill="#B6B2C9" d="M65.584,28.02c0.52,1.525-0.297,3.182-1.822,3.7l0,0c-1.525,0.518-3.184-0.298-3.699-1.823l-4.074-11.994
				c-0.52-1.525,0.299-3.181,1.824-3.7l0,0c1.523-0.518,3.182,0.298,3.698,1.823L65.584,28.02z"/>
			<path fill="#B6B2C9" d="M74.674,31.723c1.309,0.445,2.041,1.771,1.635,2.965l0,0c-0.406,1.192-1.793,1.802-3.102,1.358
				l-10.893-3.693c-1.311-0.444-2.039-1.771-1.635-2.965l0,0c0.404-1.194,1.795-1.802,3.104-1.359L74.674,31.723z"/>
		</g>
		<path id="footPath2" display="none" fill="none" d="M54.422,58.728c0-2.757,2.234-4.991,4.99-4.991
			c2.757,0,4.991,2.234,4.991,4.991c0,2.756-2.234,4.99-4.991,4.99C56.657,63.718,54.422,61.484,54.422,58.728z"/>
	</g>
	<g id="nicole">
		<path id="calve_1_" display="none" d="M29.694,53.878c-1.036,1.742-2.951,2.395-4.28,1.455l0,0
			c-1.328-0.939-1.567-3.111-0.532-4.854l8.431-14.188c1.036-1.743,2.951-2.393,4.279-1.454l0,0
			c1.329,0.938,1.568,3.112,0.532,4.853L29.694,53.878z"/>
		<path id="thigh_1_" display="none" d="M36.927,34.334c1.921,1.126,2.418,3.271,1.113,4.787l0,0
			c-1.307,1.52-3.922,1.838-5.842,0.711L20.55,32.999c-1.921-1.126-2.417-3.27-1.112-4.789l0,0c1.304-1.518,3.921-1.836,5.841-0.709
			L36.927,34.334z"/>
		<path id="shoe_1_" display="none" d="M32.9,57.656c-0.438,0.909-1.532,1.293-2.442,0.854l-6.19-2.979
			c-0.91-0.439-1.293-1.533-0.854-2.443l0,0c0.438-0.91,1.532-1.293,2.442-0.854l6.19,2.979
			C32.956,55.651,33.338,56.746,32.9,57.656L32.9,57.656z"/>
		<path id="back_1_" fill="#BCBBB9" d="M34.284,21.16l-6.64,8.37l-8.774,1.2c-0.479-1.42-0.249-3.07,0.727-4.31L28.25,15.5
			c0.792-0.99,1.895-1.5,3.017-1.5c0.92,0,1.849,0.35,2.603,1.05C35.535,16.61,35.728,19.35,34.284,21.16z"/>
		<g id="arm_1_">
			<path id="guns" fill="#BCBBB9" d="M42.892,23.018c1.238,0.824,1.474,2.276,0.527,3.245l0,0c-0.946,0.969-2.718,1.085-3.954,0.262
				l-9.734-6.481c-1.238-0.823-1.473-2.276-0.527-3.245l0,0c0.946-0.969,2.718-1.085,3.954-0.262L42.892,23.018z"/>
			<path id="forearm" fill="#BCBBB9" d="M51.762,19.354c1.214-0.465,2.58-0.036,3.053,0.96l0,0c0.471,0.994-0.128,2.177-1.342,2.641
				l-10.104,3.871c-1.214,0.464-2.58,0.036-3.053-0.959l0,0c-0.473-0.995,0.127-2.177,1.34-2.641L51.762,19.354z"/>
		</g>
		<circle id="head_1_" fill="#DDAEA6" cx="39.333" cy="7.914" r="6.083"/>
		<g id="girl_hair">
			<ellipse fill="#5B4036" cx="33.5" cy="5.4" rx="2.594" ry="2.557"/>
			<path fill="#5B4036" d="M45.02,5.755l-11.33,4.44c-0.28-0.7-0.44-1.47-0.44-2.28c0-3.36,2.72-6.08,6.08-6.08
				C41.93,1.835,44.15,3.465,45.02,5.755z"/>
			<path fill="#5B4036" d="M45.02,5.67c0.006,2.213-4.596,4.018-10.288,4.035L45.02,5.67z"/>
		</g>
		<path id="footPath" display="none" fill="none" d="M29.203,58.728c0-2.757,2.234-4.991,4.991-4.991
			c2.757,0,4.991,2.234,4.991,4.991c0,2.756-2.234,4.99-4.991,4.99C31.438,63.718,29.203,61.484,29.203,58.728z"/>
	</g>
</g>
</svg>
